<?xml version="1.0" encoding="utf-8"?>
<!-- Generator: Adobe Illustrator 16.0.4, SVG Export Plug-In . SVG Version: 6.00 Build 0)  -->
<!DOCTYPE svg PUBLIC "-//W3C//DTD SVG 1.1//EN" "http://www.w3.org/Graphics/SVG/1.1/DTD/svg11.dtd">
<svg version="1.1" id="Layer_1" xmlns="http://www.w3.org/2000/svg" xmlns:xlink="http://www.w3.org/1999/xlink" x="0px" y="0px"
	 width="500px" height="314px" viewBox="0 0 500 314" enable-background="new 0 0 500 314" xml:space="preserve">
<g>
	<path fill="#E6F0F4" d="M241,22.345V31h7v-8.655c0,0-0.916-1.459-3.327-1.459C242.263,20.885,241,22.345,241,22.345z"/>
</g>
<g>
	<path fill="#E6F0F4" d="M264.776,155.77c0,5.972-3.426,7.854-9.396,7.854s-8.38-1.692-8.38-7.662V91h-5v64.962
		c0,8.289,5.008,11.955,13.297,11.955s14.025-3.778,14.025-12.067c0,0-0.172-2.073-2.208-2.073S264.776,155.77,264.776,155.77z"/>
</g>
<g>
	<g>
		<g>
			<path fill="#E6F0F4" d="M254.475,168.463c-8.616,0-12.629-3.973-12.629-12.5v-10.595h5.162v10.595
				c0,5.653,1.457,7.117,7.085,7.117c6.821,0,10.139-2.391,10.139-7.31c0.043-0.895,0.656-2.539,2.678-2.539
				c0.745,0,1.351,0.232,1.801,0.689c0.756,0.768,0.746,1.891,0.746,1.938C269.456,163.747,263.855,168.463,254.475,168.463z"/>
		</g>
	</g>
	<g>
		<g>
			<path fill="#E6F0F4" d="M246.462,145.913v10.049c0,5.969,1.661,7.662,7.631,7.662c5.972,0,10.684-1.883,10.684-7.854
				c0,0,0.097-1.993,2.133-1.993c2.035,0,2.001,2.073,2.001,2.073c0,8.289-6.146,12.067-14.436,12.067
				c-8.29,0-12.083-3.666-12.083-11.955v-10.049H246.462 M247.552,144.823h-1.09h-4.071h-1.09v1.09v10.049
				c0,4.479,1.066,7.706,3.259,9.863c2.176,2.142,5.419,3.183,9.915,3.183c9.723,0,15.526-4.919,15.526-13.158
				c0.002-0.125-0.004-1.398-0.902-2.312c-0.382-0.388-1.072-0.852-2.189-0.852c-2.257,0-3.163,1.812-3.222,3.031l-0.002,0.026
				v0.026c0,1.673,0,6.764-9.593,6.764c-5.379,0-6.541-1.167-6.541-6.571v-10.049V144.823L247.552,144.823z"/>
		</g>
	</g>
</g>
<g>
	<path fill="#E6F0F4" d="M156.916,200.576c3.485,0,7.332,0.481,10.518,3.306c3.427,3.006,3.907,6.973,3.907,9.737
		c0,5.049-1.924,7.874-3.426,9.437c-3.186,3.245-7.394,3.546-10.218,3.546h-5.65v14.064h-9.256v-40.09H156.916z M152.047,219.028
		h3.306c1.263,0,3.486-0.06,4.989-1.503c0.842-0.841,1.503-2.224,1.503-3.967c0-1.683-0.602-3.065-1.503-3.906
		c-1.383-1.322-3.366-1.503-5.169-1.503h-3.126V219.028z"/>
	<path fill="#E6F0F4" d="M177.652,213.859h8.655v4.207c0.781-1.502,1.983-2.885,3.366-3.727c1.442-0.901,2.945-1.142,4.628-1.142
		c1.082,0,1.863,0.12,2.825,0.421l-0.481,8.114c-1.142-0.602-2.404-0.962-3.906-0.962c-1.863,0-3.246,0.661-4.328,1.803
		c-1.923,2.044-2.104,4.929-2.104,7.213v10.879h-8.655V213.859z"/>
	<path fill="#E6F0F4" d="M227.479,237.24c-2.404,2.404-6.491,4.327-11.721,4.327c-5.229,0-9.316-1.923-11.721-4.327
		c-2.704-2.705-4.026-6.552-4.026-9.978s1.322-7.272,4.026-9.978c2.404-2.404,6.492-4.327,11.721-4.327
		c5.229,0,9.316,1.923,11.721,4.327c2.704,2.705,4.026,6.552,4.026,9.978S230.184,234.535,227.479,237.24z M210.891,222.214
		c-1.263,1.263-1.983,2.885-1.983,5.049c0,2.464,0.962,4.027,1.983,5.049c1.082,1.082,2.645,1.923,4.929,1.923
		c1.923,0,3.546-0.661,4.808-1.923c1.263-1.263,1.983-2.885,1.983-5.049s-0.721-3.786-1.983-5.049
		c-1.262-1.262-2.885-1.923-4.868-1.923S212.152,220.952,210.891,222.214z"/>
	<path fill="#E6F0F4" d="M247.796,220.832v19.834h-8.655v-19.834h-3.125v-6.973h3.125v-5.289c0-3.005,0.301-6.432,3.006-9.316
		c1.743-1.863,4.207-3.065,7.513-3.065c1.923,0,3.486,0.361,4.929,0.902v7.572c-0.962-0.601-2.225-1.021-3.306-1.021
		c-1.322,0-2.164,0.602-2.524,1.082c-0.962,1.262-0.962,3.366-0.962,4.628v4.508h6.852v6.973H247.796z"/>
	<path fill="#E6F0F4" d="M286.984,228.766h-20.016c0,1.442,0.541,3.365,1.623,4.567c1.322,1.442,3.126,1.684,4.448,1.684
		c1.262,0,2.584-0.241,3.485-0.782c0.12-0.06,1.143-0.721,1.863-2.224l8.175,0.842c-1.202,3.786-3.606,5.77-5.169,6.731
		c-2.585,1.562-5.47,1.983-8.475,1.983c-4.027,0-7.573-0.721-10.699-3.847c-2.344-2.344-4.026-5.89-4.026-10.338
		c0-3.847,1.382-7.813,4.087-10.578c3.245-3.246,7.272-3.847,10.277-3.847c3.006,0,7.333,0.541,10.639,4.027
		c3.186,3.365,3.787,7.572,3.787,10.879V228.766z M278.99,223.597c-0.061-0.241-0.481-1.924-1.743-3.126
		c-0.962-0.901-2.344-1.502-4.087-1.502c-2.224,0-3.547,0.901-4.388,1.742c-0.661,0.722-1.263,1.684-1.503,2.886H278.99z"/>
	<path fill="#E6F0F4" d="M293.897,213.859h8.654v4.207c0.781-1.502,1.983-2.885,3.366-3.727c1.442-0.901,2.945-1.142,4.628-1.142
		c1.082,0,1.863,0.12,2.825,0.421l-0.481,8.114c-1.142-0.602-2.403-0.962-3.906-0.962c-1.863,0-3.246,0.661-4.327,1.803
		c-1.924,2.044-2.104,4.929-2.104,7.213v10.879h-8.654V213.859z"/>
	<path fill="#E6F0F4" d="M343.725,237.24c-2.404,2.404-6.492,4.327-11.721,4.327c-5.229,0-9.316-1.923-11.721-4.327
		c-2.704-2.705-4.026-6.552-4.026-9.978s1.322-7.272,4.026-9.978c2.404-2.404,6.491-4.327,11.721-4.327
		c5.229,0,9.316,1.923,11.721,4.327c2.704,2.705,4.026,6.552,4.026,9.978S346.429,234.535,343.725,237.24z M327.136,222.214
		c-1.263,1.263-1.983,2.885-1.983,5.049c0,2.464,0.961,4.027,1.983,5.049c1.081,1.082,2.645,1.923,4.928,1.923
		c1.924,0,3.547-0.661,4.809-1.923c1.263-1.263,1.983-2.885,1.983-5.049s-0.721-3.786-1.983-5.049
		c-1.262-1.262-2.885-1.923-4.868-1.923S328.397,220.952,327.136,222.214z"/>
</g>
<g>
	<g>
		<path fill="#FF7915" d="M244.467,24.755c0.249,0.168,0.493,0.343,0.738,0.516C244.728,24.929,244.467,24.755,244.467,24.755z"/>
	</g>
	<g>
		<path fill="#FF7915" d="M244.467,24.755c0,0-0.259,0.176-0.735,0.523C243.977,25.104,244.219,24.926,244.467,24.755z"/>
	</g>
	<g>
		<path fill="#FF7915" d="M286.082,96.113c-0.104-1.828-0.308-3.649-0.53-5.467c-0.258-1.815-0.534-3.628-0.908-5.428
			c-0.35-1.803-0.772-3.596-1.248-5.377c-1.895-7.127-4.767-14.05-8.438-20.622c-1.842-3.284-3.873-6.487-6.095-9.586
			c-2.209-3.105-4.593-6.117-7.144-9.014c-2.549-2.9-5.261-5.69-8.127-8.352c-1.434-1.331-2.906-2.629-4.423-3.887
			c-1.519-1.256-3.069-2.484-4.702-3.625c-1.614,1.149-3.144,2.385-4.642,3.649c-1.495,1.266-2.947,2.571-4.358,3.909
			c-2.825,2.675-5.49,5.479-7.995,8.388c-2.504,2.909-4.848,5.925-7.009,9.039c-2.177,3.104-4.168,6.309-5.966,9.595
			c-3.588,6.573-6.393,13.482-8.236,20.589c-0.932,3.551-1.611,7.15-2.095,10.768c-0.217,1.811-0.415,3.625-0.516,5.445
			c-0.12,1.734-0.156,3.471-0.172,5.208c2.733-1.375,17.096-7.977,40.99-7.977c23.956,0,38.981,6.637,41.792,7.988
			C286.243,99.607,286.206,97.858,286.082,96.113z"/>
	</g>
</g>
<g>
	<g>
		<path fill="#FF8A33" d="M244.675,24.755c0,0-89.904-1.921-98.9,72.882c0,0,7.469-6.641,28.608-6.641
			c15.777,0,25.882,8.151,28.129,10.158c0.021-1.69,0.065-3.379,0.187-5.066c0.107-1.835,0.313-3.665,0.538-5.491
			c0.258-1.823,0.532-3.646,0.912-5.453c0.359-1.81,0.793-3.607,1.274-5.394c1.926-7.149,4.816-14.084,8.486-20.668
			c3.668-6.587,8.144-12.814,13.271-18.579c2.561-2.885,5.279-5.66,8.153-8.301c1.436-1.322,2.912-2.609,4.429-3.857
			c1.521-1.245,3.072-2.462,4.705-3.59c0.034,0.023,0.068,0.048,0.103,0.072C244.636,24.781,244.675,24.755,244.675,24.755z"/>
	</g>
	<g>
		<path fill="#FF8A33" d="M244.467,24.755c-1.614,1.149-3.144,2.385-4.642,3.649c-1.495,1.266-2.947,2.571-4.358,3.909
			c-0.396,0.375-0.782,0.758-1.171,1.139c5.431-5.201,9.579-8.143,10.273-8.624C244.535,24.804,244.501,24.779,244.467,24.755z"/>
	</g>
</g>
<g>
	<path fill="#FF8A33" d="M244.467,24.755c0,0,0.26,0.173,0.738,0.516c1.384,0.972,2.718,1.999,4.026,3.049
		c1.539,1.239,3.036,2.52,4.493,3.833c2.917,2.627,5.682,5.388,8.286,8.262c2.605,2.874,5.056,5.86,7.317,8.956
		c2.262,3.096,4.333,6.3,6.217,9.589c3.755,6.583,6.715,13.531,8.692,20.703c0.497,1.792,0.94,3.596,1.311,5.413
		c0.386,1.814,0.668,3.644,0.935,5.474c0.23,1.834,0.441,3.671,0.552,5.515c0.126,1.684,0.169,3.371,0.192,5.057
		c2.161-2.061,11.617-10.125,27.247-10.125c21.055,0,28.48,6.641,28.48,6.641C333.993,22.834,244.467,24.755,244.467,24.755z"/>
</g>
<g>
	<g>
		<path fill="#FFD8BD" d="M286.262,101.597c-0.015-1.829-0.05-3.658-0.18-5.484c-0.104-1.828-0.308-3.649-0.53-5.467
			c-0.258-1.815-0.534-3.628-0.908-5.428c-0.35-1.803-0.772-3.596-1.248-5.377c-1.895-7.127-4.767-14.05-8.438-20.622
			c-1.842-3.284-3.873-6.487-6.095-9.586c-2.209-3.105-4.593-6.117-7.144-9.014c-2.549-2.9-5.261-5.69-8.127-8.352
			c-1.434-1.331-2.906-2.629-4.423-3.887c-1.519-1.256-3.069-2.484-4.702-3.625c-1.614,1.149-3.144,2.385-4.642,3.649
			c-1.495,1.266-2.947,2.571-4.358,3.909c-2.825,2.675-5.49,5.479-7.995,8.388c-2.504,2.909-4.848,5.925-7.009,9.039
			c-2.177,3.104-4.168,6.309-5.966,9.595c-3.588,6.573-6.393,13.482-8.236,20.589c-0.932,3.551-1.611,7.15-2.095,10.768
			c-0.217,1.811-0.415,3.625-0.516,5.445c-0.126,1.818-0.161,3.64-0.174,5.461c-0.002,0.253-0.227,0.362-0.227,0.362l-0.015,0.008
			c-0.229,0.12-0.523,0.053-0.66-0.148c-0.046-0.069-0.068-0.146-0.067-0.221c0.02-1.837,0.061-3.675,0.193-5.509
			c0.107-1.835,0.313-3.665,0.538-5.491c0.258-1.823,0.532-3.646,0.912-5.453c0.359-1.81,0.793-3.607,1.274-5.394
			c1.926-7.149,4.816-14.084,8.486-20.668c3.668-6.587,8.144-12.814,13.271-18.579c2.561-2.885,5.279-5.66,8.153-8.301
			c1.436-1.322,2.912-2.609,4.429-3.857c1.521-1.245,3.072-2.462,4.705-3.59c1.652,1.119,3.224,2.328,4.765,3.564
			c1.539,1.239,3.036,2.52,4.493,3.833c2.917,2.627,5.682,5.388,8.286,8.262c2.605,2.874,5.056,5.86,7.317,8.956
			c2.262,3.096,4.333,6.3,6.217,9.589c3.755,6.583,6.715,13.531,8.692,20.703c0.497,1.792,0.94,3.596,1.311,5.413
			c0.386,1.814,0.668,3.644,0.935,5.474c0.23,1.834,0.441,3.671,0.552,5.515c0.138,1.842,0.179,3.688,0.199,5.533
			c0.002,0.236-0.212,0.428-0.479,0.43c-0.087,0.001-0.169-0.019-0.24-0.054l-0.017-0.008
			C286.498,101.965,286.265,101.839,286.262,101.597z"/>
	</g>
</g>
<g>
	<path fill="#787D7F" d="M22.804,271.976c-0.461-0.22-1.002-0.32-1.463-0.32c-1.342,0-2.144,0.642-2.144,1.482
		c0,3.046,6.812,2.104,6.812,7.053c0,3.546-2.645,4.607-5.77,4.607c-1.423,0-3.186-0.22-4.588-0.741c0-1.102,0.14-2.905,0.34-3.967
		c0.642,0,1.863,0.141,2.505,0.36v2.044c0.681,0.24,1.422,0.421,2.164,0.421c1.502,0,2.424-0.682,2.424-1.884
		c0-3.165-6.872-1.903-6.872-7.312c0-2.424,1.943-3.927,5.149-3.927c1.262,0,2.984,0.28,4.207,0.701
		c0,0.962-0.181,2.604-0.421,3.586c-0.661,0-1.743-0.22-2.344-0.5V271.976z"/>
	<path fill="#787D7F" d="M41.777,277.104c0,4.869-2.645,7.693-6.731,7.693c-4.367,0-6.792-2.664-6.792-7.693
		c0-4.508,2.925-7.312,6.792-7.312C39.093,269.792,41.777,272.396,41.777,277.104z M35.046,282.814c2.324,0,3.466-2.163,3.466-5.71
		c0-3.125-1.382-5.349-3.466-5.349c-2.284,0-3.506,2.063-3.506,5.349C31.54,280.591,32.842,282.814,35.046,282.814z"/>
	<path fill="#787D7F" d="M48.41,282.273c0.621,0.04,1.482,0.16,2.004,0.281c0.14,0.44,0.18,1.422,0.1,1.843h-6.972
		c0.04-0.501,0.221-1.402,0.4-1.803c0.301-0.12,1.022-0.261,1.383-0.321v-9.997c-0.421-0.04-1.002-0.141-1.322-0.24
		c-0.08-0.581-0.12-1.202-0.021-1.844H54.44v3.807c-0.681,0-1.702-0.14-2.304-0.34c-0.1-0.361-0.24-1.143-0.28-1.583H48.41v4.508
		h2.765c0.021-0.24,0.101-0.682,0.181-0.962c0.561-0.18,1.463-0.32,2.184-0.32v4.327c-0.661,0.061-1.623,0.021-2.204-0.18
		c-0.08-0.261-0.16-0.741-0.18-1.022H48.41V282.273z"/>
	<path fill="#787D7F" d="M64.019,282.273c0.621,0.04,1.463,0.16,1.983,0.281c0.141,0.44,0.181,1.422,0.101,1.843h-7.313
		c0.04-0.501,0.301-1.383,0.481-1.783c0.381-0.12,1.202-0.28,1.663-0.341v-10.197h-2.225c-0.04,0.421-0.16,1.222-0.26,1.623
		c-0.722,0.24-1.644,0.28-2.324,0.28v-3.787h12.722v3.847c-0.761,0-1.663-0.08-2.344-0.28c-0.12-0.44-0.24-1.202-0.28-1.683h-2.204
		V282.273z"/>
	<path fill="#787D7F" d="M76.822,281.854c0.021-1.082,0.24-2.785,0.501-3.807l2.124-8.034h2.805l2.043,8.054
		c0.221,0.882,0.421,2.464,0.441,3.626h0.24c0.02-1.182,0.301-2.765,0.561-3.646l1.103-3.687c0.22-0.722,0.561-1.563,0.901-2.104
		c-0.341-0.021-0.842-0.101-1.182-0.201c-0.141-0.44-0.261-1.362-0.261-1.863h4.929c0,0.541-0.12,1.463-0.281,1.924
		c-0.3,0.08-0.701,0.141-1.021,0.16l-4.007,12.342h-2.604l-2.044-8.395c-0.22-0.902-0.36-2.265-0.4-3.346h-0.24
		c-0.04,1.062-0.2,2.464-0.44,3.365l-2.204,8.395h-2.885l-3.687-12.381c-0.301-0.04-0.741-0.141-1.002-0.241
		c-0.16-0.48-0.28-1.242-0.32-1.823h5.89c0,0.501-0.16,1.403-0.34,1.924c-0.241,0.08-1.022,0.16-1.323,0.16
		c0.321,0.501,0.661,1.303,0.882,2.084l1.002,3.687c0.28,1.001,0.561,2.704,0.581,3.807H76.822z"/>
	<path fill="#787D7F" d="M99.464,284.397c0.04-0.48,0.28-1.362,0.48-1.823c0.341-0.12,0.901-0.261,1.242-0.32
		c-0.301-0.36-0.541-0.861-0.721-1.322l-0.221-0.562h-5.169l-0.24,0.661c-0.12,0.341-0.361,0.962-0.602,1.303
		c0.421,0.04,1.022,0.141,1.383,0.24c0.18,0.44,0.32,1.322,0.32,1.823h-5.649c0.08-0.621,0.28-1.303,0.48-1.803
		c0.24-0.12,0.661-0.241,0.962-0.301l5.229-12.342h2.305l5.009,12.281c0.32,0.061,0.781,0.181,1.081,0.301
		c0.161,0.541,0.281,1.303,0.321,1.863H99.464z M97.601,272.878c-0.061,0.801-0.541,2.224-0.781,2.864l-1.022,2.765h3.767
		l-1.062-2.805c-0.221-0.601-0.621-2.003-0.661-2.824H97.601z"/>
	<path fill="#787D7F" d="M108.741,272.356c-0.4,0-1.021-0.06-1.342-0.14c-0.08-0.461-0.101-1.403-0.04-1.944
		c1.582-0.18,4.066-0.28,5.89-0.28c3.346,0,5.79,1.263,5.79,4.228c0,1.903-1.282,3.226-2.885,3.827
		c1.142,2.063,2.545,3.906,3.126,4.267l1.102-0.12c0,0.621-0.181,1.604-0.421,2.084c-0.581,0.181-2.004,0.4-2.665,0.44
		c-0.741-0.521-2.765-3.626-3.946-6.19c-0.602,0-1.143-0.061-1.522-0.141v3.887c0.461,0.04,1.102,0.16,1.482,0.281
		c0.12,0.44,0.16,1.422,0.08,1.843h-6.432c0.04-0.501,0.221-1.402,0.401-1.803c0.3-0.12,1.021-0.261,1.382-0.321V272.356z
		 M111.827,276.563c0.421,0.08,1.122,0.12,1.662,0.12c1.343,0,2.444-0.721,2.444-2.363c0-1.503-1.262-2.404-3.005-2.404
		c-0.381,0-0.802,0.02-1.102,0.06V276.563z"/>
	<path fill="#787D7F" d="M121.726,284.397c0.04-0.501,0.221-1.402,0.4-1.803c0.301-0.12,1.022-0.261,1.383-0.321v-9.997
		c-0.421-0.04-1.002-0.141-1.322-0.24c-0.08-0.581-0.12-1.202-0.021-1.844h10.879v3.627c-0.681,0-1.643-0.101-2.264-0.301
		c-0.101-0.36-0.2-1.021-0.24-1.442h-3.947v4.147h3.105c0.021-0.221,0.101-0.621,0.181-0.882c0.561-0.181,1.462-0.301,2.184-0.301
		v4.107c-0.661,0.06-1.623,0.02-2.204-0.16c-0.08-0.24-0.16-0.682-0.18-0.922h-3.086v4.408h4.007
		c0.04-0.521,0.141-1.162,0.261-1.623c0.561-0.181,1.703-0.301,2.384-0.301v3.847H121.726z"/>
	<path fill="#787D7F" d="M139.537,282.694c0,1.263-0.761,1.964-1.843,1.964c-1.242,0-1.903-0.682-1.903-1.964
		c0-1.102,0.781-1.823,1.903-1.823C138.776,280.871,139.537,281.532,139.537,282.694z"/>
	<path fill="#787D7F" d="M143.385,272.477c-0.401-0.04-0.981-0.12-1.322-0.18c-0.08-0.602-0.141-1.223-0.021-1.884
		c1.482-0.181,4.408-0.36,5.79-0.36c4.648,0,7.813,2.164,7.813,6.972c0,5.229-3.565,7.514-7.032,7.514
		c-1.883,0-5.049-0.061-6.972-0.181c0.04-0.501,0.221-1.402,0.4-1.803c0.301-0.121,0.982-0.241,1.343-0.301V272.477z
		 M146.47,282.494c0.441,0.04,1.122,0.061,1.562,0.061c2.645,0,4.448-1.483,4.448-5.209c0-3.687-1.903-5.33-4.769-5.33
		c-0.341,0-0.901,0.04-1.242,0.08V282.494z"/>
	<path fill="#787D7F" d="M157.01,284.397c0.04-0.501,0.221-1.402,0.4-1.803c0.301-0.12,1.022-0.261,1.383-0.321v-9.997
		c-0.421-0.04-1.002-0.141-1.322-0.24c-0.08-0.581-0.12-1.202-0.021-1.844h10.879v3.627c-0.681,0-1.643-0.101-2.264-0.301
		c-0.101-0.36-0.2-1.021-0.24-1.442h-3.947v4.147h3.105c0.021-0.221,0.101-0.621,0.181-0.882c0.561-0.181,1.462-0.301,2.184-0.301
		v4.107c-0.661,0.06-1.623,0.02-2.204-0.16c-0.08-0.24-0.16-0.682-0.18-0.922h-3.086v4.408h4.007
		c0.04-0.521,0.141-1.162,0.261-1.623c0.561-0.181,1.703-0.301,2.384-0.301v3.847H157.01z"/>
	<path fill="#787D7F" d="M177.968,271.976c-0.461-0.22-1.002-0.32-1.463-0.32c-1.342,0-2.144,0.642-2.144,1.482
		c0,3.046,6.812,2.104,6.812,7.053c0,3.546-2.645,4.607-5.77,4.607c-1.423,0-3.186-0.22-4.588-0.741c0-1.102,0.14-2.905,0.34-3.967
		c0.642,0,1.863,0.141,2.505,0.36v2.044c0.681,0.24,1.422,0.421,2.164,0.421c1.502,0,2.424-0.682,2.424-1.884
		c0-3.165-6.872-1.903-6.872-7.312c0-2.424,1.943-3.927,5.149-3.927c1.262,0,2.984,0.28,4.207,0.701
		c0,0.962-0.181,2.604-0.421,3.586c-0.661,0-1.743-0.22-2.344-0.5V271.976z"/>
	<path fill="#787D7F" d="M182.856,284.397c0.04-0.501,0.221-1.402,0.401-1.803c0.3-0.12,1.021-0.261,1.382-0.321v-9.997
		c-0.421-0.04-1.001-0.141-1.322-0.24c-0.08-0.581-0.14-1.202-0.02-1.844h5.93c0.08,0.401,0.061,1.423-0.04,1.844
		c-0.34,0.1-1.062,0.2-1.462,0.221v10.017c0.501,0.04,1.182,0.16,1.603,0.281c0.08,0.28,0.12,0.801,0.12,1.242
		c0,0.24-0.02,0.46-0.04,0.601H182.856z"/>
	<path fill="#787D7F" d="M203.714,283.797c-1.183,0.4-3.827,1.001-5.71,1.001c-4.207,0-6.731-2.904-6.731-7.152
		c0-4.708,3.125-7.854,7.953-7.854c1.724,0,3.226,0.44,4.588,1.242c0,1.002-0.18,2.745-0.4,3.646c-0.741,0-2.023-0.301-2.444-0.541
		v-2.044c-0.521-0.26-1.262-0.4-1.863-0.4c-2.444,0-4.527,1.884-4.527,5.771c0,3.646,1.743,5.269,4.407,5.269
		c0.501,0,1.223-0.06,1.764-0.12v-3.426c-0.642,0-1.903-0.08-2.564-0.221c-0.121-0.48-0.221-1.302-0.221-1.803h7.413
		c0,0.48-0.101,1.302-0.281,1.803c-0.32,0.08-1.041,0.181-1.382,0.2V283.797z"/>
	<path fill="#787D7F" d="M216.718,278.047c0.481,0.881,0.842,1.963,1.021,2.984h0.241v-8.755c-0.481-0.04-1.143-0.141-1.503-0.24
		c-0.08-0.44-0.12-1.423-0.021-1.844h5.109c0.04,0.161,0.061,0.441,0.061,0.741c0,0.421-0.041,0.862-0.101,1.103
		c-0.301,0.1-0.981,0.2-1.343,0.221v12.301h-3.105l-4.908-8.715c-0.44-0.802-0.882-2.023-1.021-2.885h-0.24v9.315
		c0.48,0.04,1.102,0.16,1.502,0.281c0.12,0.44,0.16,1.422,0.08,1.843h-5.609c0.04-0.501,0.2-1.402,0.36-1.803
		c0.301-0.12,0.922-0.261,1.263-0.321v-9.997c-0.421-0.04-1.002-0.141-1.322-0.24c-0.08-0.44-0.12-1.423-0.021-1.844h5.169
		L216.718,278.047z"/>
	<path fill="#787D7F" d="M227.218,282.694c0,1.263-0.761,1.964-1.843,1.964c-1.242,0-1.903-0.682-1.903-1.964
		c0-1.102,0.781-1.823,1.903-1.823C226.457,280.871,227.218,281.532,227.218,282.694z"/>
	<path fill="#787D7F" d="M231.064,272.337c-0.4,0-1.001-0.061-1.342-0.12c-0.08-0.461-0.101-1.403-0.04-1.944
		c1.603-0.18,4.127-0.28,5.97-0.28c3.346,0,5.771,1.383,5.771,4.428c0,3.206-2.865,4.608-5.63,4.608
		c-0.642,0-1.242-0.061-1.643-0.141v3.386c0.641,0.04,1.522,0.16,2.063,0.281c0.14,0.44,0.18,1.422,0.1,1.843h-7.032
		c0.04-0.501,0.221-1.402,0.401-1.803c0.3-0.12,1.021-0.261,1.382-0.321V272.337z M234.15,276.984c0.461,0.08,1.142,0.12,1.703,0.12
		c1.422,0,2.464-0.781,2.464-2.624c0-1.603-1.223-2.564-3.045-2.564c-0.381,0-0.822,0.02-1.122,0.06V276.984z"/>
	<path fill="#787D7F" d="M244.489,272.356c-0.4,0-1.021-0.06-1.342-0.14c-0.08-0.461-0.101-1.403-0.04-1.944
		c1.582-0.18,4.066-0.28,5.89-0.28c3.346,0,5.79,1.263,5.79,4.228c0,1.903-1.282,3.226-2.885,3.827
		c1.142,2.063,2.544,3.906,3.125,4.267l1.103-0.12c0,0.621-0.181,1.604-0.421,2.084c-0.581,0.181-2.004,0.4-2.665,0.44
		c-0.741-0.521-2.765-3.626-3.946-6.19c-0.602,0-1.143-0.061-1.522-0.141v3.887c0.461,0.04,1.102,0.16,1.482,0.281
		c0.12,0.44,0.16,1.422,0.08,1.843h-6.432c0.04-0.501,0.221-1.402,0.401-1.803c0.3-0.12,1.021-0.261,1.382-0.321V272.356z
		 M247.575,276.563c0.421,0.08,1.122,0.12,1.662,0.12c1.343,0,2.444-0.721,2.444-2.363c0-1.503-1.262-2.404-3.005-2.404
		c-0.381,0-0.802,0.02-1.102,0.06V276.563z"/>
	<path fill="#787D7F" d="M271.157,277.104c0,4.869-2.645,7.693-6.731,7.693c-4.368,0-6.792-2.664-6.792-7.693
		c0-4.508,2.925-7.312,6.792-7.312C268.473,269.792,271.157,272.396,271.157,277.104z M264.426,282.814
		c2.323,0,3.466-2.163,3.466-5.71c0-3.125-1.383-5.349-3.466-5.349c-2.284,0-3.507,2.063-3.507,5.349
		C260.919,280.591,262.222,282.814,264.426,282.814z"/>
	<path fill="#787D7F" d="M278.19,279.549c0,3.967-1.783,6.893-5.309,8.515c-0.361-0.36-0.802-1.122-0.942-1.622
		c2.324-1.343,3.166-3.606,3.166-6.371v-7.794c-0.541-0.04-1.282-0.141-1.703-0.24c-0.08-0.581-0.12-1.202-0.02-1.844h6.311
		c0.04,0.161,0.06,0.441,0.06,0.741c0,0.421-0.04,0.862-0.1,1.103c-0.341,0.1-1.062,0.2-1.463,0.221V279.549z"/>
	<path fill="#787D7F" d="M281.037,284.397c0.04-0.501,0.22-1.402,0.4-1.803c0.301-0.12,1.021-0.261,1.383-0.321v-9.997
		c-0.421-0.04-1.002-0.141-1.322-0.24c-0.081-0.581-0.121-1.202-0.021-1.844h10.879v3.627c-0.682,0-1.643-0.101-2.264-0.301
		c-0.101-0.36-0.2-1.021-0.24-1.442h-3.947v4.147h3.105c0.02-0.221,0.1-0.621,0.181-0.882c0.561-0.181,1.462-0.301,2.184-0.301
		v4.107c-0.661,0.06-1.623,0.02-2.204-0.16c-0.08-0.24-0.16-0.682-0.181-0.922h-3.085v4.408h4.007
		c0.04-0.521,0.141-1.162,0.261-1.623c0.561-0.181,1.703-0.301,2.384-0.301v3.847H281.037z"/>
	<path fill="#787D7F" d="M303.597,272.076c-0.441-0.2-0.901-0.301-1.442-0.301c-2.345,0-4.088,1.764-4.088,5.369
		c0,3.627,1.743,5.31,4.168,5.31c1.041,0,2.765-0.28,4.087-0.762c0.06,0.562-0.16,1.523-0.481,2.044
		c-1.161,0.601-2.744,1.062-4.307,1.062c-4.067,0-6.752-3.065-6.752-7.372c0-4.789,3.386-7.634,7.553-7.634
		c1.522,0,2.985,0.381,4.107,0.941c0,1.202-0.16,2.865-0.381,3.887c-0.761,0-1.883-0.26-2.464-0.581V272.076z"/>
	<path fill="#787D7F" d="M316.181,282.273c0.621,0.04,1.462,0.16,1.983,0.281c0.14,0.44,0.18,1.422,0.1,1.843h-7.312
		c0.04-0.501,0.301-1.383,0.481-1.783c0.38-0.12,1.201-0.28,1.662-0.341v-10.197h-2.224c-0.04,0.421-0.16,1.222-0.261,1.623
		c-0.721,0.24-1.643,0.28-2.323,0.28v-3.787h12.722v3.847c-0.762,0-1.663-0.08-2.344-0.28c-0.12-0.44-0.241-1.202-0.281-1.683
		h-2.203V282.273z"/>
	<path fill="#787D7F" d="M331.367,276.022c-0.32-0.861-0.661-2.443-0.761-3.485h-0.24v9.757c0.4,0.04,0.961,0.16,1.302,0.28
		c0.101,0.44,0.141,1.402,0.061,1.823H326.6c0.04-0.501,0.2-1.402,0.341-1.803c0.28-0.12,0.841-0.261,1.161-0.321v-9.997
		c-0.38-0.04-0.921-0.141-1.222-0.24c-0.08-0.44-0.12-1.423-0.021-1.844h5.51l2.765,7.394c0.341,0.881,0.661,2.524,0.722,3.546h0.24
		c0.04-1.002,0.4-2.705,0.722-3.526l2.824-7.413h5.31c0.08,0.401,0.061,1.423-0.04,1.844c-0.341,0.1-1.062,0.2-1.463,0.221v10.097
		c0.461,0.04,1.122,0.141,1.583,0.241c0.101,0.26,0.141,0.781,0.141,1.222c0,0.24-0.021,0.44-0.04,0.581h-6.011
		c0.04-0.501,0.2-1.402,0.36-1.803c0.301-0.12,0.862-0.261,1.223-0.321v-9.816h-0.24c-0.161,1.162-0.481,2.664-0.862,3.727
		l-2.984,8.435h-2.145L331.367,276.022z"/>
	<path fill="#787D7F" d="M355.632,284.397c0.04-0.48,0.28-1.362,0.48-1.823c0.341-0.12,0.902-0.261,1.242-0.32
		c-0.3-0.36-0.54-0.861-0.721-1.322l-0.221-0.562h-5.169l-0.24,0.661c-0.12,0.341-0.36,0.962-0.601,1.303
		c0.42,0.04,1.021,0.141,1.382,0.24c0.181,0.44,0.32,1.322,0.32,1.823h-5.649c0.08-0.621,0.28-1.303,0.48-1.803
		c0.241-0.12,0.661-0.241,0.962-0.301l5.229-12.342h2.304l5.009,12.281c0.32,0.061,0.781,0.181,1.082,0.301
		c0.16,0.541,0.28,1.303,0.32,1.863H355.632z M353.769,272.878c-0.06,0.801-0.541,2.224-0.781,2.864l-1.021,2.765h3.767
		l-1.062-2.805c-0.22-0.601-0.621-2.003-0.661-2.824H353.769z"/>
	<path fill="#787D7F" d="M373.124,278.047c0.48,0.881,0.842,1.963,1.021,2.984h0.24v-8.755c-0.48-0.04-1.142-0.141-1.502-0.24
		c-0.08-0.44-0.12-1.423-0.021-1.844h5.109c0.04,0.161,0.06,0.441,0.06,0.741c0,0.421-0.04,0.862-0.1,1.103
		c-0.301,0.1-0.982,0.2-1.343,0.221v12.301h-3.105l-4.908-8.715c-0.44-0.802-0.882-2.023-1.021-2.885h-0.241v9.315
		c0.481,0.04,1.103,0.16,1.503,0.281c0.12,0.44,0.16,1.422,0.08,1.843h-5.609c0.04-0.501,0.2-1.402,0.36-1.803
		c0.301-0.12,0.922-0.261,1.263-0.321v-9.997c-0.421-0.04-1.002-0.141-1.322-0.24c-0.081-0.44-0.121-1.423-0.021-1.844h5.169
		L373.124,278.047z"/>
	<path fill="#787D7F" d="M387.892,284.397c0.04-0.48,0.28-1.362,0.48-1.823c0.341-0.12,0.902-0.261,1.242-0.32
		c-0.3-0.36-0.54-0.861-0.721-1.322l-0.221-0.562h-5.169l-0.24,0.661c-0.12,0.341-0.36,0.962-0.601,1.303
		c0.42,0.04,1.021,0.141,1.382,0.24c0.181,0.44,0.32,1.322,0.32,1.823h-5.649c0.08-0.621,0.28-1.303,0.48-1.803
		c0.241-0.12,0.661-0.241,0.962-0.301l5.229-12.342h2.304l5.009,12.281c0.32,0.061,0.781,0.181,1.082,0.301
		c0.16,0.541,0.28,1.303,0.32,1.863H387.892z M386.028,272.878c-0.06,0.801-0.541,2.224-0.781,2.864l-1.021,2.765h3.767
		l-1.062-2.805c-0.22-0.601-0.621-2.003-0.661-2.824H386.028z"/>
	<path fill="#787D7F" d="M407.507,283.797c-1.182,0.4-3.826,1.001-5.71,1.001c-4.207,0-6.731-2.904-6.731-7.152
		c0-4.708,3.125-7.854,7.954-7.854c1.723,0,3.226,0.44,4.588,1.242c0,1.002-0.181,2.745-0.401,3.646
		c-0.741,0-2.023-0.301-2.444-0.541v-2.044c-0.521-0.26-1.262-0.4-1.863-0.4c-2.443,0-4.527,1.884-4.527,5.771
		c0,3.646,1.743,5.269,4.407,5.269c0.501,0,1.223-0.06,1.764-0.12v-3.426c-0.642,0-1.903-0.08-2.564-0.221
		c-0.12-0.48-0.221-1.302-0.221-1.803h7.413c0,0.48-0.101,1.302-0.28,1.803c-0.321,0.08-1.042,0.181-1.383,0.2V283.797z"/>
	<path fill="#787D7F" d="M415.443,276.022c-0.321-0.861-0.662-2.443-0.762-3.485h-0.24v9.757c0.4,0.04,0.961,0.16,1.302,0.28
		c0.101,0.44,0.141,1.402,0.061,1.823h-5.129c0.04-0.501,0.2-1.402,0.341-1.803c0.28-0.12,0.841-0.261,1.161-0.321v-9.997
		c-0.38-0.04-0.921-0.141-1.222-0.24c-0.08-0.44-0.12-1.423-0.021-1.844h5.51l2.765,7.394c0.341,0.881,0.661,2.524,0.722,3.546h0.24
		c0.04-1.002,0.401-2.705,0.722-3.526l2.824-7.413h5.31c0.08,0.401,0.061,1.423-0.04,1.844c-0.341,0.1-1.062,0.2-1.463,0.221v10.097
		c0.461,0.04,1.122,0.141,1.583,0.241c0.101,0.26,0.141,0.781,0.141,1.222c0,0.24-0.021,0.44-0.04,0.581h-6.011
		c0.04-0.501,0.2-1.402,0.36-1.803c0.301-0.12,0.861-0.261,1.223-0.321v-9.816h-0.24c-0.161,1.162-0.481,2.664-0.862,3.727
		l-2.984,8.435h-2.145L415.443,276.022z"/>
	<path fill="#787D7F" d="M430.791,284.397c0.04-0.501,0.22-1.402,0.4-1.803c0.301-0.12,1.021-0.261,1.383-0.321v-9.997
		c-0.421-0.04-1.002-0.141-1.322-0.24c-0.081-0.581-0.121-1.202-0.021-1.844h10.879v3.627c-0.682,0-1.643-0.101-2.264-0.301
		c-0.101-0.36-0.2-1.021-0.24-1.442h-3.947v4.147h3.105c0.02-0.221,0.1-0.621,0.181-0.882c0.561-0.181,1.462-0.301,2.184-0.301
		v4.107c-0.661,0.06-1.623,0.02-2.204-0.16c-0.08-0.24-0.16-0.682-0.181-0.922h-3.085v4.408h4.007
		c0.04-0.521,0.141-1.162,0.261-1.623c0.561-0.181,1.703-0.301,2.384-0.301v3.847H430.791z"/>
	<path fill="#787D7F" d="M454.293,278.047c0.48,0.881,0.842,1.963,1.021,2.984h0.24v-8.755c-0.48-0.04-1.142-0.141-1.502-0.24
		c-0.08-0.44-0.12-1.423-0.021-1.844h5.109c0.04,0.161,0.06,0.441,0.06,0.741c0,0.421-0.04,0.862-0.1,1.103
		c-0.301,0.1-0.982,0.2-1.343,0.221v12.301h-3.105l-4.908-8.715c-0.44-0.802-0.882-2.023-1.021-2.885h-0.241v9.315
		c0.481,0.04,1.103,0.16,1.503,0.281c0.12,0.44,0.16,1.422,0.08,1.843h-5.609c0.04-0.501,0.2-1.402,0.36-1.803
		c0.301-0.12,0.922-0.261,1.263-0.321v-9.997c-0.421-0.04-1.002-0.141-1.322-0.24c-0.081-0.44-0.121-1.423-0.021-1.844h5.169
		L454.293,278.047z"/>
	<path fill="#787D7F" d="M468.42,282.273c0.621,0.04,1.462,0.16,1.983,0.281c0.14,0.44,0.18,1.422,0.1,1.843h-7.312
		c0.04-0.501,0.301-1.383,0.481-1.783c0.38-0.12,1.201-0.28,1.662-0.341v-10.197h-2.224c-0.04,0.421-0.16,1.222-0.261,1.623
		c-0.721,0.24-1.643,0.28-2.323,0.28v-3.787h12.722v3.847c-0.762,0-1.663-0.08-2.344-0.28c-0.12-0.44-0.241-1.202-0.281-1.683
		h-2.203V282.273z"/>
</g>
</svg>
