<?xml version="1.0" encoding="utf-8"?>
<!-- Generator: Adobe Illustrator 16.0.0, SVG Export Plug-In . SVG Version: 6.00 Build 0)  -->
<!DOCTYPE svg PUBLIC "-//W3C//DTD SVG 1.1//EN" "http://www.w3.org/Graphics/SVG/1.1/DTD/svg11.dtd">
<svg version="1.1" id="Layer_1" xmlns="http://www.w3.org/2000/svg" xmlns:xlink="http://www.w3.org/1999/xlink" x="0px" y="0px"
	 width="500px" height="314px" viewBox="0 0 500 314" enable-background="new 0 0 500 314" xml:space="preserve">
<g>
	<path fill="#E6F0F4" d="M241,22.345V31h7v-8.655c0,0-0.916-1.459-3.327-1.459C242.263,20.885,241,22.345,241,22.345z"/>
</g>
<g>
	<path fill="#E6F0F4" d="M264.775,155.77c0,5.972-3.426,7.854-9.396,7.854s-8.38-1.692-8.38-7.662V91h-5v64.962
		c0,8.289,5.008,11.955,13.297,11.955s14.023-3.778,14.023-12.067c0,0-0.172-2.073-2.209-2.073
		C265.078,153.777,264.775,155.77,264.775,155.77z"/>
</g>
<g>
	<g>
		<g>
			<path fill="#E6F0F4" d="M254.475,168.463c-8.616,0-12.627-3.973-12.627-12.5v-10.595h5.162v10.595
				c0,5.653,1.457,7.117,7.085,7.117c6.821,0,10.141-2.391,10.141-7.31c0.043-0.895,0.656-2.539,2.679-2.539
				c0.745,0,1.352,0.232,1.801,0.689c0.756,0.768,0.746,1.891,0.746,1.938C269.456,163.747,263.855,168.463,254.475,168.463z"/>
		</g>
	</g>
	<g>
		<g>
			<path fill="#E6F0F4" d="M246.462,145.913v10.049c0,5.97,1.661,7.662,7.631,7.662c5.972,0,10.685-1.883,10.685-7.854
				c0,0,0.099-1.993,2.135-1.993c2.033,0,2.001,2.073,2.001,2.073c0,8.289-6.146,12.067-14.438,12.067
				c-8.29,0-12.083-3.666-12.083-11.955v-10.049H246.462 M247.552,144.823h-1.09h-4.071h-1.09v1.09v10.049
				c0,4.479,1.066,7.706,3.259,9.863c2.176,2.142,5.419,3.183,9.915,3.183c9.726,0,15.526-4.919,15.526-13.158
				c0.002-0.125-0.004-1.398-0.901-2.312c-0.383-0.388-1.072-0.852-2.188-0.852c-2.26,0-3.163,1.812-3.225,3.031l-0.002,0.026v0.026
				c0,1.673,0,6.764-9.593,6.764c-5.379,0-6.541-1.167-6.541-6.571v-10.049V144.823L247.552,144.823z"/>
		</g>
	</g>
</g>
<g>
	<path fill="#E6F0F4" d="M156.916,200.576c3.484,0,7.332,0.48,10.518,3.306c3.427,3.007,3.907,6.974,3.907,9.737
		c0,5.049-1.924,7.874-3.426,9.438c-3.187,3.244-7.395,3.545-10.219,3.545h-5.649v14.064h-9.256v-40.09H156.916z M152.047,219.027
		h3.306c1.264,0,3.486-0.062,4.989-1.502c0.842-0.842,1.503-2.227,1.503-3.967c0-1.686-0.602-3.065-1.503-3.906
		c-1.383-1.322-3.366-1.504-5.169-1.504h-3.126V219.027L152.047,219.027z"/>
	<path fill="#E6F0F4" d="M177.652,213.859h8.655v4.207c0.781-1.502,1.983-2.885,3.366-3.729c1.441-0.899,2.945-1.144,4.628-1.144
		c1.082,0,1.863,0.119,2.825,0.423l-0.481,8.112c-1.142-0.603-2.403-0.963-3.906-0.963c-1.862,0-3.245,0.662-4.327,1.803
		c-1.924,2.047-2.104,4.932-2.104,7.216v10.879h-8.655V213.859L177.652,213.859z"/>
	<path fill="#E6F0F4" d="M227.479,237.24c-2.403,2.404-6.491,4.326-11.721,4.326s-9.316-1.922-11.721-4.326
		c-2.704-2.705-4.026-6.553-4.026-9.979c0-3.426,1.322-7.271,4.026-9.978c2.403-2.404,6.491-4.327,11.721-4.327
		c5.229,0,9.316,1.923,11.721,4.327c2.704,2.705,4.026,6.552,4.026,9.978C231.505,230.688,230.184,234.535,227.479,237.24z
		 M210.891,222.214c-1.263,1.263-1.982,2.886-1.982,5.05c0,2.463,0.962,4.026,1.982,5.049c1.082,1.082,2.646,1.922,4.929,1.922
		c1.924,0,3.547-0.658,4.809-1.922c1.263-1.264,1.982-2.886,1.982-5.049c0-2.164-0.721-3.787-1.982-5.05
		c-1.262-1.262-2.885-1.923-4.868-1.923S212.152,220.952,210.891,222.214z"/>
	<path fill="#E6F0F4" d="M247.796,220.832v19.834h-8.655v-19.834h-3.125v-6.973h3.125v-5.289c0-3.006,0.301-6.432,3.006-9.316
		c1.743-1.863,4.207-3.064,7.514-3.064c1.923,0,3.485,0.36,4.929,0.901v7.572c-0.962-0.601-2.227-1.021-3.306-1.021
		c-1.322,0-2.164,0.602-2.524,1.082c-0.962,1.262-0.962,3.363-0.962,4.627v4.508h6.852v6.974L247.796,220.832L247.796,220.832z"/>
	<path fill="#E6F0F4" d="M286.984,228.766h-20.018c0,1.442,0.541,3.365,1.623,4.567c1.322,1.442,3.126,1.685,4.448,1.685
		c1.262,0,2.584-0.242,3.482-0.783c0.121-0.06,1.146-0.721,1.863-2.223l8.176,0.842c-1.203,3.785-3.604,5.771-5.17,6.73
		c-2.584,1.562-5.47,1.982-8.475,1.982c-4.027,0-7.573-0.723-10.699-3.848c-2.344-2.345-4.025-5.891-4.025-10.339
		c0-3.847,1.383-7.812,4.086-10.577c3.246-3.244,7.272-3.848,10.277-3.848c3.006,0,7.334,0.541,10.639,4.025
		c3.188,3.365,3.787,7.572,3.787,10.879v0.902h0.004L286.984,228.766L286.984,228.766z M278.99,223.598
		c-0.061-0.242-0.48-1.925-1.742-3.127c-0.962-0.898-2.346-1.502-4.087-1.502c-2.226,0-3.548,0.901-4.39,1.742
		c-0.66,0.723-1.264,1.684-1.502,2.887H278.99z"/>
	<path fill="#E6F0F4" d="M293.896,213.859h8.653v4.207c0.78-1.502,1.982-2.885,3.365-3.729c1.442-0.899,2.944-1.144,4.629-1.144
		c1.082,0,1.862,0.119,2.824,0.423l-0.48,8.112c-1.143-0.603-2.401-0.963-3.905-0.963c-1.862,0-3.246,0.662-4.326,1.803
		c-1.924,2.047-2.104,4.932-2.104,7.216v10.879h-8.653v-26.808h-0.002L293.896,213.859L293.896,213.859z"/>
	<path fill="#E6F0F4" d="M343.725,237.24c-2.403,2.404-6.491,4.326-11.721,4.326s-9.316-1.922-11.722-4.326
		c-2.704-2.705-4.025-6.553-4.025-9.979c0-3.426,1.321-7.271,4.025-9.978c2.403-2.404,6.49-4.327,11.722-4.327
		c5.229,0,9.315,1.923,11.721,4.327c2.705,2.705,4.026,6.552,4.026,9.978C347.751,230.688,346.43,234.535,343.725,237.24z
		 M327.136,222.214c-1.264,1.263-1.982,2.886-1.982,5.05c0,2.463,0.961,4.026,1.982,5.049c1.081,1.082,2.646,1.922,4.93,1.922
		c1.924,0,3.547-0.658,4.809-1.922c1.264-1.264,1.981-2.886,1.981-5.049c0-2.164-0.721-3.787-1.981-5.05
		c-1.262-1.262-2.885-1.923-4.867-1.923C330.023,220.291,328.396,220.952,327.136,222.214z"/>
</g>
<g>
	<g>
		<path fill="#FF7915" d="M244.467,24.755c0.249,0.168,0.493,0.343,0.738,0.516C244.728,24.929,244.467,24.755,244.467,24.755z"/>
	</g>
	<g>
		<path fill="#FF7915" d="M244.467,24.755c0,0-0.259,0.176-0.735,0.523C243.977,25.104,244.219,24.926,244.467,24.755z"/>
	</g>
	<g>
		<path fill="#FF7915" d="M286.082,96.113c-0.104-1.828-0.31-3.649-0.53-5.467c-0.258-1.815-0.534-3.628-0.907-5.428
			c-0.351-1.803-0.771-3.596-1.248-5.377c-1.896-7.127-4.768-14.05-8.438-20.622c-1.842-3.284-3.873-6.487-6.096-9.586
			c-2.21-3.105-4.595-6.117-7.146-9.014c-2.549-2.9-5.261-5.69-8.127-8.352c-1.434-1.331-2.906-2.629-4.423-3.887
			c-1.52-1.256-3.069-2.484-4.702-3.625c-1.614,1.149-3.145,2.385-4.642,3.649c-1.495,1.266-2.947,2.571-4.358,3.909
			c-2.825,2.675-5.49,5.479-7.995,8.388c-2.504,2.909-4.848,5.925-7.009,9.039c-2.177,3.104-4.168,6.309-5.966,9.595
			c-3.588,6.573-6.394,13.482-8.236,20.589c-0.932,3.551-1.611,7.15-2.095,10.768c-0.217,1.811-0.415,3.625-0.517,5.445
			c-0.12,1.734-0.155,3.471-0.172,5.208c2.733-1.375,17.096-7.977,40.99-7.977c23.956,0,38.98,6.637,41.792,7.988
			C286.243,99.607,286.206,97.858,286.082,96.113z"/>
	</g>
</g>
<g>
	<g>
		<path fill="#FF8A33" d="M244.675,24.755c0,0-89.904-1.921-98.9,72.882c0,0,7.47-6.641,28.608-6.641
			c15.777,0,25.882,8.151,28.129,10.158c0.021-1.69,0.065-3.379,0.188-5.066c0.106-1.835,0.312-3.665,0.537-5.491
			c0.259-1.823,0.532-3.646,0.912-5.453c0.359-1.81,0.793-3.607,1.274-5.394c1.926-7.149,4.815-14.084,8.486-20.668
			c3.668-6.587,8.144-12.814,13.271-18.579c2.562-2.885,5.279-5.66,8.153-8.301c1.436-1.322,2.912-2.609,4.429-3.857
			c1.521-1.245,3.072-2.462,4.705-3.59c0.034,0.023,0.068,0.048,0.103,0.072C244.636,24.781,244.675,24.755,244.675,24.755z"/>
	</g>
	<g>
		<path fill="#FF8A33" d="M244.467,24.755c-1.614,1.149-3.145,2.385-4.642,3.649c-1.495,1.266-2.947,2.571-4.358,3.909
			c-0.396,0.375-0.782,0.758-1.171,1.139c5.431-5.201,9.579-8.143,10.272-8.624C244.535,24.804,244.501,24.779,244.467,24.755z"/>
	</g>
</g>
<g>
	<path fill="#FF8A33" d="M244.467,24.755c0,0,0.26,0.173,0.738,0.516c1.384,0.972,2.718,1.999,4.025,3.049
		c1.539,1.239,3.037,2.52,4.494,3.833c2.916,2.627,5.684,5.388,8.285,8.262c2.605,2.874,5.057,5.86,7.317,8.956
		c2.262,3.096,4.333,6.3,6.217,9.589c3.755,6.583,6.715,13.531,8.691,20.703c0.496,1.792,0.938,3.596,1.312,5.413
		c0.387,1.814,0.668,3.644,0.936,5.474c0.229,1.834,0.44,3.671,0.554,5.515c0.126,1.684,0.169,3.371,0.19,5.057
		c2.16-2.061,11.616-10.125,27.246-10.125c21.056,0,28.479,6.641,28.479,6.641C333.992,22.834,244.467,24.755,244.467,24.755z"/>
</g>
<g>
	<g>
		<path fill="#FFD8BD" d="M286.262,101.597c-0.015-1.829-0.05-3.658-0.18-5.484c-0.104-1.828-0.31-3.649-0.53-5.467
			c-0.258-1.815-0.534-3.628-0.907-5.428c-0.351-1.803-0.771-3.596-1.248-5.377c-1.896-7.127-4.768-14.05-8.438-20.622
			c-1.842-3.284-3.873-6.487-6.096-9.586c-2.21-3.105-4.595-6.117-7.146-9.014c-2.549-2.9-5.261-5.69-8.127-8.352
			c-1.434-1.331-2.906-2.629-4.423-3.887c-1.52-1.256-3.069-2.484-4.702-3.625c-1.614,1.149-3.145,2.385-4.642,3.649
			c-1.495,1.266-2.947,2.571-4.358,3.909c-2.825,2.675-5.49,5.479-7.995,8.388c-2.504,2.909-4.848,5.925-7.009,9.039
			c-2.177,3.104-4.168,6.309-5.966,9.595c-3.588,6.573-6.394,13.482-8.236,20.589c-0.932,3.551-1.611,7.15-2.095,10.768
			c-0.217,1.811-0.415,3.625-0.517,5.445c-0.126,1.818-0.161,3.64-0.174,5.461c-0.002,0.253-0.227,0.362-0.227,0.362l-0.016,0.008
			c-0.229,0.12-0.522,0.053-0.66-0.148c-0.046-0.069-0.067-0.146-0.066-0.221c0.02-1.837,0.061-3.675,0.193-5.509
			c0.106-1.835,0.312-3.665,0.537-5.491c0.259-1.823,0.532-3.646,0.912-5.453c0.359-1.81,0.793-3.607,1.274-5.394
			c1.926-7.149,4.815-14.084,8.486-20.668c3.668-6.587,8.144-12.814,13.271-18.579c2.562-2.885,5.279-5.66,8.153-8.301
			c1.436-1.322,2.912-2.609,4.429-3.857c1.521-1.245,3.072-2.462,4.705-3.59c1.652,1.119,3.224,2.328,4.765,3.564
			c1.539,1.239,3.037,2.52,4.494,3.833c2.916,2.627,5.684,5.388,8.285,8.262c2.605,2.874,5.057,5.86,7.317,8.956
			c2.262,3.096,4.333,6.3,6.217,9.589c3.755,6.583,6.715,13.531,8.691,20.703c0.496,1.792,0.938,3.596,1.312,5.413
			c0.387,1.814,0.668,3.644,0.936,5.474c0.229,1.834,0.44,3.671,0.554,5.515c0.138,1.842,0.179,3.688,0.196,5.533
			c0.002,0.236-0.211,0.428-0.479,0.43c-0.087,0.001-0.169-0.019-0.24-0.054l-0.017-0.008
			C286.498,101.965,286.266,101.839,286.262,101.597z"/>
	</g>
</g>
<g>
	<path fill="#6E7172" d="M38.524,274.105c-0.46-0.221-1-0.32-1.46-0.32c-1.34,0-2.14,0.64-2.14,1.48c0,3.04,6.801,2.101,6.801,7.041
		c0,3.541-2.641,4.602-5.761,4.602c-1.42,0-3.181-0.221-4.581-0.74c0-1.101,0.14-2.9,0.34-3.961c0.64,0,1.86,0.14,2.5,0.36v2.04
		c0.68,0.24,1.42,0.42,2.16,0.42c1.5,0,2.421-0.68,2.421-1.88c0-3.161-6.862-1.9-6.862-7.302c0-2.421,1.94-3.921,5.141-3.921
		c1.26,0,2.981,0.28,4.201,0.7c0,0.96-0.18,2.601-0.42,3.581c-0.66,0-1.74-0.221-2.34-0.501V274.105z"/>
	<path fill="#6E7172" d="M57.665,279.227c0,4.86-2.641,7.682-6.721,7.682c-4.361,0-6.782-2.661-6.782-7.682
		c0-4.501,2.921-7.302,6.782-7.302C54.985,271.925,57.665,274.525,57.665,279.227z M50.944,284.928c2.32,0,3.46-2.161,3.46-5.701
		c0-3.121-1.38-5.342-3.46-5.342c-2.281,0-3.501,2.061-3.501,5.342C47.443,282.707,48.743,284.928,50.944,284.928z"/>
	<path fill="#6E7172" d="M64.483,284.388c0.62,0.04,1.48,0.16,2,0.279c0.14,0.44,0.18,1.421,0.1,1.841h-6.961
		c0.04-0.5,0.22-1.4,0.4-1.801c0.3-0.119,1.02-0.26,1.38-0.319v-9.982c-0.42-0.04-1-0.14-1.32-0.24c-0.08-0.58-0.12-1.2-0.02-1.84
		h10.442v3.801c-0.68,0-1.701-0.141-2.301-0.341c-0.1-0.359-0.24-1.14-0.28-1.58h-3.441v4.501h2.761c0.02-0.24,0.1-0.68,0.18-0.96
		c0.56-0.181,1.46-0.32,2.18-0.32v4.321c-0.66,0.06-1.62,0.02-2.2-0.181c-0.08-0.26-0.16-0.74-0.18-1.02h-2.741V284.388z"/>
	<path fill="#6E7172" d="M80.264,284.388c0.62,0.04,1.46,0.16,1.98,0.279c0.14,0.44,0.18,1.421,0.1,1.841h-7.301
		c0.04-0.5,0.3-1.38,0.48-1.78c0.38-0.12,1.2-0.28,1.66-0.34v-10.183h-2.22c-0.04,0.42-0.16,1.221-0.26,1.62
		c-0.72,0.24-1.64,0.28-2.32,0.28v-3.78h12.703v3.841c-0.76,0-1.66-0.08-2.34-0.28c-0.12-0.44-0.24-1.2-0.28-1.681h-2.2V284.388z"/>
	<path fill="#6E7172" d="M93.243,283.967c0.02-1.08,0.24-2.78,0.5-3.801l2.12-8.021h2.801l2.041,8.042
		c0.22,0.88,0.42,2.461,0.44,3.621h0.24c0.02-1.181,0.3-2.761,0.56-3.642l1.1-3.681c0.22-0.72,0.56-1.56,0.9-2.101
		c-0.34-0.02-0.84-0.1-1.181-0.199c-0.14-0.44-0.26-1.36-0.26-1.86h4.921c0,0.54-0.12,1.46-0.28,1.92c-0.3,0.08-0.7,0.14-1.021,0.16
		l-4.001,12.322h-2.6l-2.041-8.382c-0.22-0.899-0.36-2.26-0.4-3.341h-0.24c-0.04,1.061-0.2,2.461-0.44,3.361l-2.2,8.382h-2.881
		l-3.681-12.363c-0.3-0.039-0.74-0.14-1-0.239c-0.16-0.48-0.28-1.24-0.32-1.82h5.881c0,0.5-0.16,1.399-0.34,1.92
		c-0.24,0.08-1.02,0.16-1.32,0.16c0.32,0.5,0.66,1.3,0.88,2.08l1,3.681c0.28,1.001,0.56,2.701,0.58,3.801H93.243z"/>
	<path fill="#6E7172" d="M116.044,286.508c0.04-0.48,0.28-1.36,0.48-1.82c0.34-0.12,0.9-0.26,1.24-0.32
		c-0.3-0.36-0.54-0.86-0.72-1.32l-0.22-0.56h-5.161l-0.24,0.66c-0.12,0.34-0.36,0.96-0.6,1.3c0.42,0.04,1.02,0.141,1.38,0.24
		c0.18,0.44,0.32,1.32,0.32,1.82h-5.641c0.08-0.62,0.28-1.3,0.48-1.801c0.24-0.119,0.66-0.239,0.96-0.3l5.221-12.322h2.3
		l5.001,12.263c0.32,0.06,0.78,0.18,1.081,0.3c0.16,0.54,0.28,1.3,0.32,1.86H116.044z M114.183,275.005
		c-0.06,0.801-0.54,2.221-0.78,2.861l-1.02,2.761h3.761l-1.061-2.801c-0.22-0.601-0.62-2.001-0.66-2.821H114.183z"/>
	<path fill="#6E7172" d="M125.502,274.485c-0.4,0-1.02-0.061-1.34-0.14c-0.08-0.461-0.1-1.4-0.04-1.94
		c1.581-0.181,4.061-0.28,5.881-0.28c3.341,0,5.781,1.26,5.781,4.221c0,1.9-1.28,3.221-2.881,3.82
		c1.141,2.061,2.541,3.901,3.121,4.262l1.101-0.12c0,0.62-0.18,1.6-0.42,2.08c-0.58,0.18-2,0.4-2.66,0.44
		c-0.74-0.521-2.761-3.621-3.941-6.182c-0.6,0-1.141-0.06-1.521-0.14v3.881c0.46,0.04,1.1,0.16,1.48,0.279
		c0.12,0.44,0.16,1.421,0.08,1.841h-6.421c0.04-0.5,0.22-1.4,0.4-1.801c0.3-0.119,1.02-0.26,1.38-0.319V274.485z M128.582,278.687
		c0.42,0.08,1.12,0.12,1.66,0.12c1.34,0,2.441-0.721,2.441-2.361c0-1.5-1.26-2.4-3.001-2.4c-0.38,0-0.8,0.021-1.1,0.061V278.687z"/>
	<path fill="#6E7172" d="M138.661,286.508c0.04-0.5,0.22-1.4,0.4-1.801c0.3-0.119,1.02-0.26,1.38-0.319v-9.982
		c-0.42-0.04-1-0.14-1.32-0.24c-0.08-0.58-0.12-1.2-0.02-1.84h10.862v3.62c-0.68,0-1.64-0.1-2.26-0.3c-0.1-0.36-0.2-1.021-0.24-1.44
		h-3.941v4.141h3.101c0.02-0.22,0.1-0.62,0.18-0.88c0.56-0.18,1.46-0.3,2.181-0.3v4.101c-0.66,0.061-1.621,0.021-2.201-0.16
		c-0.08-0.24-0.16-0.68-0.18-0.92h-3.081v4.401h4.001c0.04-0.521,0.14-1.161,0.26-1.621c0.561-0.18,1.701-0.3,2.381-0.3v3.841
		H138.661z"/>
	<path fill="#6E7172" d="M156.642,284.808c0,1.26-0.76,1.96-1.84,1.96c-1.24,0-1.9-0.68-1.9-1.96c0-1.101,0.78-1.82,1.9-1.82
		C155.882,282.987,156.642,283.647,156.642,284.808z"/>
	<path fill="#6E7172" d="M167.943,274.205c-0.44-0.2-0.9-0.3-1.44-0.3c-2.341,0-4.081,1.76-4.081,5.361
		c0,3.62,1.74,5.301,4.161,5.301c1.04,0,2.76-0.28,4.081-0.76c0.06,0.56-0.16,1.52-0.48,2.04c-1.16,0.601-2.741,1.061-4.301,1.061
		c-4.061,0-6.742-3.061-6.742-7.362c0-4.78,3.381-7.621,7.542-7.621c1.52,0,2.98,0.38,4.101,0.94c0,1.2-0.16,2.86-0.38,3.881
		c-0.76,0-1.88-0.261-2.46-0.58V274.205z"/>
	<path fill="#6E7172" d="M186.404,279.227c0,4.86-2.641,7.682-6.721,7.682c-4.361,0-6.782-2.661-6.782-7.682
		c0-4.501,2.921-7.302,6.782-7.302C183.723,271.925,186.404,274.525,186.404,279.227z M179.683,284.928
		c2.32,0,3.46-2.161,3.46-5.701c0-3.121-1.38-5.342-3.46-5.342c-2.281,0-3.501,2.061-3.501,5.342
		C176.182,282.707,177.482,284.928,179.683,284.928z"/>
	<path fill="#6E7172" d="M198.343,280.166c0.48,0.881,0.84,1.961,1.021,2.981h0.24v-8.742c-0.48-0.04-1.14-0.14-1.5-0.24
		c-0.08-0.44-0.12-1.42-0.02-1.84h5.101c0.04,0.159,0.06,0.439,0.06,0.739c0,0.421-0.04,0.86-0.1,1.101
		c-0.3,0.101-0.98,0.2-1.34,0.22v12.283h-3.101l-4.901-8.702c-0.44-0.8-0.88-2.021-1.02-2.881h-0.24v9.303
		c0.48,0.04,1.1,0.16,1.5,0.279c0.12,0.44,0.16,1.421,0.08,1.841h-5.602c0.04-0.5,0.2-1.4,0.36-1.801
		c0.3-0.119,0.92-0.26,1.26-0.319v-9.982c-0.42-0.04-1-0.14-1.32-0.24c-0.08-0.44-0.12-1.42-0.02-1.84h5.161L198.343,280.166z"/>
	<path fill="#6E7172" d="M212.162,274.105c-0.46-0.221-1-0.32-1.46-0.32c-1.34,0-2.14,0.64-2.14,1.48
		c0,3.04,6.801,2.101,6.801,7.041c0,3.541-2.641,4.602-5.761,4.602c-1.42,0-3.181-0.221-4.581-0.74c0-1.101,0.14-2.9,0.34-3.961
		c0.64,0,1.86,0.14,2.5,0.36v2.04c0.68,0.24,1.42,0.42,2.16,0.42c1.5,0,2.421-0.68,2.421-1.88c0-3.161-6.862-1.9-6.862-7.302
		c0-2.421,1.94-3.921,5.141-3.921c1.26,0,2.981,0.28,4.201,0.7c0,0.96-0.18,2.601-0.42,3.581c-0.66,0-1.74-0.221-2.34-0.501V274.105
		z"/>
	<path fill="#6E7172" d="M222.102,281.007c0,2.601,0.92,3.881,3,3.881c2.28,0,3.181-1.641,3.181-3.881v-6.602
		c-0.38-0.04-0.92-0.14-1.22-0.24c-0.08-0.44-0.12-1.42-0.021-1.84h4.921c0.04,0.159,0.061,0.439,0.061,0.739
		c0,0.421-0.04,0.86-0.101,1.101c-0.279,0.101-0.899,0.2-1.24,0.22v6.481c0,3.581-1.74,6.042-6.101,6.042
		c-3.841,0-5.562-1.921-5.562-5.741v-6.821c-0.4-0.04-0.96-0.12-1.32-0.221c-0.1-0.439-0.18-1.32-0.18-1.8h5.981
		c0.08,0.399,0.061,1.42-0.04,1.84c-0.319,0.101-0.979,0.2-1.359,0.22V281.007z"/>
	<path fill="#6E7172" d="M235.34,274.405c-0.42-0.04-1-0.14-1.32-0.24c-0.079-0.58-0.14-1.2-0.02-1.84h6.501
		c0.08,0.399,0.061,1.42-0.06,1.84c-0.46,0.101-1.48,0.2-2.021,0.22v10.163h4.061c0.04-0.541,0.2-1.521,0.301-1.961
		c0.62-0.22,1.76-0.34,2.42-0.34v4.261H233.56c0.04-0.5,0.221-1.4,0.4-1.801c0.3-0.119,1.021-0.26,1.38-0.319V274.405z"/>
	<path fill="#6E7172" d="M253.461,284.388c0.62,0.04,1.461,0.16,1.98,0.279c0.141,0.44,0.181,1.421,0.101,1.841h-7.302
		c0.04-0.5,0.3-1.38,0.479-1.78c0.381-0.12,1.201-0.28,1.661-0.34v-10.183h-2.221c-0.04,0.42-0.16,1.221-0.26,1.62
		c-0.721,0.24-1.641,0.28-2.321,0.28v-3.78h12.703v3.841c-0.76,0-1.66-0.08-2.341-0.28c-0.12-0.44-0.239-1.2-0.279-1.681h-2.201
		V284.388z"/>
	<path fill="#6E7172" d="M259.8,286.508c0.04-0.5,0.221-1.4,0.4-1.801c0.3-0.119,1.021-0.26,1.38-0.319v-9.982
		c-0.42-0.04-1-0.14-1.32-0.24c-0.079-0.58-0.14-1.2-0.02-1.84h5.921c0.08,0.399,0.061,1.42-0.04,1.84
		c-0.34,0.101-1.06,0.2-1.46,0.22v10.003c0.5,0.04,1.181,0.16,1.601,0.279c0.08,0.28,0.12,0.801,0.12,1.24
		c0,0.24-0.021,0.461-0.04,0.601H259.8z"/>
	<path fill="#6E7172" d="M278.102,280.166c0.48,0.881,0.84,1.961,1.021,2.981h0.24v-8.742c-0.48-0.04-1.141-0.14-1.501-0.24
		c-0.08-0.44-0.12-1.42-0.02-1.84h5.101c0.04,0.159,0.061,0.439,0.061,0.739c0,0.421-0.04,0.86-0.101,1.101
		c-0.3,0.101-0.979,0.2-1.34,0.22v12.283h-3.101l-4.901-8.702c-0.44-0.8-0.88-2.021-1.021-2.881h-0.239v9.303
		c0.479,0.04,1.1,0.16,1.5,0.279c0.12,0.44,0.16,1.421,0.08,1.841h-5.602c0.04-0.5,0.2-1.4,0.36-1.801
		c0.3-0.119,0.92-0.26,1.26-0.319v-9.982c-0.42-0.04-1-0.14-1.32-0.24c-0.079-0.44-0.119-1.42-0.02-1.84h5.161L278.102,280.166z"/>
	<path fill="#6E7172" d="M297.182,285.907c-1.181,0.4-3.821,1.001-5.701,1.001c-4.201,0-6.722-2.901-6.722-7.142
		c0-4.701,3.121-7.842,7.941-7.842c1.721,0,3.221,0.44,4.581,1.24c0,1-0.18,2.74-0.399,3.641c-0.74,0-2.021-0.3-2.44-0.54v-2.04
		c-0.521-0.261-1.261-0.4-1.86-0.4c-2.441,0-4.521,1.88-4.521,5.761c0,3.642,1.74,5.262,4.401,5.262c0.5,0,1.22-0.061,1.76-0.12
		v-3.421c-0.64,0-1.9-0.08-2.561-0.22c-0.12-0.48-0.22-1.301-0.22-1.801h7.401c0,0.48-0.1,1.301-0.28,1.801
		c-0.319,0.08-1.04,0.18-1.38,0.2V285.907z"/>
	<path fill="#6E7172" d="M304.68,284.808c0,1.26-0.76,1.96-1.84,1.96c-1.24,0-1.9-0.68-1.9-1.96c0-1.101,0.78-1.82,1.9-1.82
		C303.92,282.987,304.68,283.647,304.68,284.808z"/>
	<path fill="#6E7172" d="M311.86,278.146c-0.319-0.86-0.659-2.441-0.76-3.481h-0.24v9.742c0.4,0.04,0.961,0.16,1.301,0.28
		c0.1,0.44,0.14,1.4,0.06,1.82h-5.121c0.04-0.5,0.2-1.4,0.34-1.801c0.28-0.119,0.841-0.26,1.161-0.319v-9.982
		c-0.381-0.04-0.921-0.14-1.221-0.24c-0.08-0.44-0.12-1.42-0.02-1.84h5.501l2.761,7.381c0.34,0.881,0.66,2.521,0.72,3.541h0.24
		c0.04-1,0.399-2.7,0.72-3.521l2.821-7.401h5.301c0.08,0.399,0.06,1.42-0.04,1.84c-0.34,0.101-1.061,0.2-1.46,0.22v10.083
		c0.46,0.04,1.12,0.14,1.58,0.239c0.1,0.261,0.14,0.78,0.14,1.221c0,0.24-0.02,0.44-0.04,0.58h-6.001c0.04-0.5,0.2-1.4,0.36-1.801
		c0.3-0.119,0.86-0.26,1.22-0.319v-9.803h-0.24c-0.159,1.16-0.479,2.661-0.859,3.721l-2.981,8.422h-2.14L311.86,278.146z"/>
	<path fill="#6E7172" d="M336.281,286.508c0.04-0.48,0.28-1.36,0.48-1.82c0.34-0.12,0.899-0.26,1.24-0.32
		c-0.301-0.36-0.541-0.86-0.721-1.32l-0.22-0.56h-5.161l-0.24,0.66c-0.12,0.34-0.36,0.96-0.601,1.3
		c0.421,0.04,1.021,0.141,1.381,0.24c0.18,0.44,0.32,1.32,0.32,1.82h-5.642c0.08-0.62,0.28-1.3,0.48-1.801
		c0.239-0.119,0.66-0.239,0.96-0.3l5.221-12.322h2.301l5.001,12.263c0.32,0.06,0.78,0.18,1.08,0.3c0.16,0.54,0.28,1.3,0.32,1.86
		H336.281z M334.421,275.005c-0.061,0.801-0.54,2.221-0.78,2.861l-1.021,2.761h3.761l-1.06-2.801
		c-0.221-0.601-0.62-2.001-0.66-2.821H334.421z"/>
	<path fill="#6E7172" d="M353.941,280.166c0.48,0.881,0.84,1.961,1.021,2.981h0.24v-8.742c-0.48-0.04-1.141-0.14-1.501-0.24
		c-0.08-0.44-0.12-1.42-0.02-1.84h5.101c0.04,0.159,0.061,0.439,0.061,0.739c0,0.421-0.04,0.86-0.101,1.101
		c-0.3,0.101-0.979,0.2-1.34,0.22v12.283h-3.101l-4.901-8.702c-0.44-0.8-0.88-2.021-1.021-2.881h-0.239v9.303
		c0.479,0.04,1.1,0.16,1.5,0.279c0.12,0.44,0.16,1.421,0.08,1.841h-5.602c0.04-0.5,0.2-1.4,0.36-1.801
		c0.3-0.119,0.92-0.26,1.26-0.319v-9.982c-0.42-0.04-1-0.14-1.32-0.24c-0.079-0.44-0.119-1.42-0.02-1.84h5.161L353.941,280.166z"/>
	<path fill="#6E7172" d="M368.881,286.508c0.04-0.48,0.28-1.36,0.48-1.82c0.34-0.12,0.899-0.26,1.24-0.32
		c-0.301-0.36-0.541-0.86-0.721-1.32l-0.22-0.56H364.5l-0.24,0.66c-0.12,0.34-0.36,0.96-0.601,1.3
		c0.421,0.04,1.021,0.141,1.381,0.24c0.18,0.44,0.32,1.32,0.32,1.82h-5.642c0.08-0.62,0.28-1.3,0.48-1.801
		c0.239-0.119,0.66-0.239,0.96-0.3l5.221-12.322h2.301l5.001,12.263c0.32,0.06,0.78,0.18,1.08,0.3c0.16,0.54,0.28,1.3,0.32,1.86
		H368.881z M367.021,275.005c-0.061,0.801-0.54,2.221-0.78,2.861l-1.021,2.761h3.761l-1.06-2.801
		c-0.221-0.601-0.62-2.001-0.66-2.821H367.021z"/>
	<path fill="#6E7172" d="M388.661,285.907c-1.181,0.4-3.821,1.001-5.701,1.001c-4.201,0-6.722-2.901-6.722-7.142
		c0-4.701,3.121-7.842,7.941-7.842c1.721,0,3.221,0.44,4.581,1.24c0,1-0.18,2.74-0.399,3.641c-0.74,0-2.021-0.3-2.44-0.54v-2.04
		c-0.521-0.261-1.261-0.4-1.86-0.4c-2.441,0-4.521,1.88-4.521,5.761c0,3.642,1.74,5.262,4.401,5.262c0.5,0,1.22-0.061,1.76-0.12
		v-3.421c-0.64,0-1.9-0.08-2.561-0.22c-0.12-0.48-0.22-1.301-0.22-1.801h7.401c0,0.48-0.1,1.301-0.28,1.801
		c-0.319,0.08-1.04,0.18-1.38,0.2V285.907z"/>
	<path fill="#6E7172" d="M391.859,286.508c0.04-0.5,0.221-1.4,0.4-1.801c0.3-0.119,1.021-0.26,1.38-0.319v-9.982
		c-0.42-0.04-1-0.14-1.32-0.24c-0.079-0.58-0.119-1.2-0.02-1.84h10.862v3.62c-0.68,0-1.641-0.1-2.261-0.3
		c-0.1-0.36-0.2-1.021-0.24-1.44h-3.94v4.141h3.101c0.021-0.22,0.101-0.62,0.18-0.88c0.561-0.18,1.461-0.3,2.181-0.3v4.101
		c-0.66,0.061-1.62,0.021-2.2-0.16c-0.08-0.24-0.16-0.68-0.18-0.92h-3.081v4.401h4.001c0.04-0.521,0.14-1.161,0.26-1.621
		c0.561-0.18,1.7-0.3,2.381-0.3v3.841H391.859z"/>
	<path fill="#6E7172" d="M410.459,278.146c-0.319-0.86-0.659-2.441-0.76-3.481h-0.24v9.742c0.4,0.04,0.961,0.16,1.301,0.28
		c0.1,0.44,0.14,1.4,0.06,1.82h-5.121c0.04-0.5,0.2-1.4,0.34-1.801c0.28-0.119,0.841-0.26,1.161-0.319v-9.982
		c-0.381-0.04-0.921-0.14-1.221-0.24c-0.08-0.44-0.12-1.42-0.02-1.84h5.501l2.761,7.381c0.34,0.881,0.66,2.521,0.72,3.541h0.24
		c0.04-1,0.399-2.7,0.72-3.521l2.821-7.401h5.301c0.08,0.399,0.06,1.42-0.04,1.84c-0.34,0.101-1.061,0.2-1.46,0.22v10.083
		c0.46,0.04,1.12,0.14,1.58,0.239c0.1,0.261,0.14,0.78,0.14,1.221c0,0.24-0.02,0.44-0.04,0.58h-6.001c0.04-0.5,0.2-1.4,0.36-1.801
		c0.3-0.119,0.86-0.26,1.22-0.319v-9.803h-0.24c-0.159,1.16-0.479,2.661-0.859,3.721l-2.981,8.422h-2.14L410.459,278.146z"/>
	<path fill="#6E7172" d="M425.978,286.508c0.04-0.5,0.221-1.4,0.4-1.801c0.3-0.119,1.021-0.26,1.38-0.319v-9.982
		c-0.42-0.04-1-0.14-1.32-0.24c-0.079-0.58-0.119-1.2-0.02-1.84h10.862v3.62c-0.68,0-1.641-0.1-2.261-0.3
		c-0.1-0.36-0.2-1.021-0.24-1.44h-3.94v4.141h3.101c0.021-0.22,0.101-0.62,0.18-0.88c0.561-0.18,1.461-0.3,2.181-0.3v4.101
		c-0.66,0.061-1.62,0.021-2.2-0.16c-0.08-0.24-0.16-0.68-0.18-0.92h-3.081v4.401h4.001c0.04-0.521,0.14-1.161,0.26-1.621
		c0.561-0.18,1.7-0.3,2.381-0.3v3.841H425.978z"/>
	<path fill="#6E7172" d="M449.64,280.166c0.48,0.881,0.84,1.961,1.021,2.981h0.24v-8.742c-0.48-0.04-1.141-0.14-1.501-0.24
		c-0.08-0.44-0.12-1.42-0.02-1.84h5.101c0.04,0.159,0.061,0.439,0.061,0.739c0,0.421-0.04,0.86-0.101,1.101
		c-0.3,0.101-0.979,0.2-1.34,0.22v12.283H450l-4.901-8.702c-0.44-0.8-0.88-2.021-1.021-2.881h-0.239v9.303
		c0.479,0.04,1.1,0.16,1.5,0.279c0.12,0.44,0.16,1.421,0.08,1.841h-5.602c0.04-0.5,0.2-1.4,0.36-1.801
		c0.3-0.119,0.92-0.26,1.26-0.319v-9.982c-0.42-0.04-1-0.14-1.32-0.24c-0.079-0.44-0.119-1.42-0.02-1.84h5.161L449.64,280.166z"/>
	<path fill="#6E7172" d="M463.94,284.388c0.62,0.04,1.461,0.16,1.98,0.279c0.141,0.44,0.181,1.421,0.101,1.841h-7.302
		c0.04-0.5,0.3-1.38,0.479-1.78c0.381-0.12,1.201-0.28,1.661-0.34v-10.183h-2.221c-0.04,0.42-0.16,1.221-0.26,1.62
		c-0.721,0.24-1.641,0.28-2.321,0.28v-3.78h12.703v3.841c-0.76,0-1.66-0.08-2.341-0.28c-0.12-0.44-0.239-1.2-0.279-1.681h-2.201
		V284.388z"/>
</g>
</svg>
