<svg xmlns="http://www.w3.org/2000/svg" width="500" height="314" viewBox="0 0 500 314"><path fill="#E6F0F4" d="M241 22.345V31h7v-8.655s-.916-1.46-3.327-1.46c-2.41 0-3.673 1.46-3.673 1.46zM264.775 155.77c0 5.972-3.426 7.854-9.396 7.854s-8.38-1.692-8.38-7.662V91h-5v64.962c0 8.29 5.007 11.955 13.296 11.955s14.025-3.778 14.025-12.067c0 0-.17-2.073-2.208-2.073-2.034 0-2.337 1.993-2.337 1.993z"/><path fill="#E6F0F4" d="M254.475 168.463c-8.616 0-12.628-3.973-12.628-12.5v-10.595h5.162v10.595c0 5.653 1.456 7.117 7.084 7.117 6.82 0 10.14-2.39 10.14-7.31.043-.895.656-2.54 2.678-2.54.745 0 1.352.233 1.8.69.757.768.747 1.89.747 1.938-.004 7.89-5.605 12.605-14.985 12.605z"/><path fill="#E6F0F4" d="M246.462 145.913v10.05c0 5.97 1.66 7.66 7.63 7.66 5.973 0 10.686-1.882 10.686-7.853 0 0 .097-1.993 2.133-1.993s2.002 2.073 2.002 2.073c0 8.29-6.146 12.067-14.437 12.067-8.29 0-12.083-3.666-12.083-11.955v-10.05h4.07m1.09-1.09h-6.25v11.14c0 4.48 1.065 7.706 3.258 9.863 2.176 2.142 5.42 3.183 9.915 3.183 9.724 0 15.526-4.92 15.526-13.158.003-.125-.003-1.398-.9-2.312-.383-.388-1.072-.852-2.19-.852-2.257 0-3.162 1.812-3.222 3.03l-.002.027v.026c0 1.672 0 6.763-9.593 6.763-5.38 0-6.54-1.167-6.54-6.57v-11.14z"/><g fill="#E6F0F4"><path d="M156.916 200.576c3.485 0 7.332.48 10.518 3.306 3.427 3.007 3.907 6.974 3.907 9.737 0 5.048-1.923 7.873-3.425 9.437-3.186 3.244-7.394 3.545-10.218 3.545h-5.65v14.064h-9.256v-40.09h14.126zm-4.87 18.45h3.307c1.263 0 3.486-.06 4.99-1.5.84-.843 1.502-2.226 1.502-3.968 0-1.684-.602-3.065-1.503-3.906-1.383-1.322-3.366-1.504-5.17-1.504h-3.125v10.88zM177.652 213.86h8.655v4.206c.78-1.502 1.983-2.885 3.366-3.728 1.442-.9 2.945-1.142 4.628-1.142 1.083 0 1.864.12 2.826.42l-.48 8.115c-1.143-.602-2.405-.962-3.907-.962-1.864 0-3.247.662-4.33 1.803-1.922 2.046-2.103 4.93-2.103 7.215v10.88h-8.655v-26.806zM227.48 237.24c-2.405 2.404-6.492 4.326-11.722 4.326-5.23 0-9.316-1.922-11.72-4.326-2.705-2.705-4.027-6.553-4.027-9.98s1.323-7.27 4.027-9.977c2.404-2.404 6.492-4.327 11.72-4.327s9.317 1.923 11.722 4.327c2.703 2.705 4.025 6.552 4.025 9.978s-1.32 7.275-4.026 9.98zm-16.59-15.026c-1.262 1.263-1.982 2.886-1.982 5.05 0 2.463.962 4.026 1.983 5.05 1.083 1.08 2.646 1.92 4.93 1.92 1.923 0 3.546-.66 4.808-1.92 1.263-1.265 1.983-2.887 1.983-5.05 0-2.164-.72-3.787-1.982-5.05-1.262-1.262-2.885-1.923-4.868-1.923-1.983 0-3.608.662-4.87 1.924zM247.796 220.832v19.834h-8.655v-19.834h-3.124v-6.973h3.125v-5.29c0-3.006.302-6.432 3.007-9.316 1.743-1.863 4.207-3.064 7.513-3.064 1.923 0 3.486.36 4.93.9v7.573c-.963-.6-2.227-1.02-3.307-1.02-1.322 0-2.164.6-2.524 1.08-.963 1.263-.963 3.366-.963 4.628v4.51h6.852v6.973h-6.854zM286.984 228.766h-20.017c0 1.442.54 3.365 1.623 4.567 1.322 1.442 3.126 1.685 4.448 1.685 1.262 0 2.584-.242 3.484-.783.12-.06 1.144-.72 1.863-2.223l8.176.842c-1.202 3.785-3.605 5.77-5.17 6.73-2.583 1.562-5.47 1.982-8.474 1.982-4.027 0-7.573-.72-10.7-3.846-2.343-2.345-4.024-5.89-4.024-10.34 0-3.846 1.382-7.812 4.086-10.576 3.246-3.246 7.272-3.848 10.277-3.848 3.006 0 7.334.54 10.64 4.027 3.186 3.365 3.786 7.572 3.786 10.88v.9h.004zm-7.994-5.168c-.06-.242-.48-1.925-1.743-3.127-.962-.9-2.345-1.5-4.087-1.5-2.225 0-3.547.9-4.39 1.74-.66.724-1.262 1.685-1.5 2.888h11.72zM293.896 213.86h8.654v4.206c.78-1.502 1.983-2.885 3.366-3.728 1.442-.9 2.944-1.142 4.628-1.142 1.082 0 1.863.12 2.825.42l-.482 8.115c-1.142-.602-2.402-.962-3.906-.962-1.862 0-3.246.662-4.326 1.803-1.924 2.046-2.104 4.93-2.104 7.215v10.88H293.9v-26.807h-.004zM343.725 237.24c-2.404 2.404-6.492 4.326-11.72 4.326s-9.317-1.922-11.722-4.326c-2.704-2.705-4.026-6.553-4.026-9.98s1.322-7.27 4.026-9.977c2.404-2.404 6.49-4.327 11.72-4.327s9.317 1.923 11.722 4.327c2.705 2.705 4.026 6.552 4.026 9.978s-1.32 7.275-4.025 9.98zm-16.59-15.026c-1.262 1.263-1.982 2.886-1.982 5.05 0 2.463.96 4.026 1.983 5.05 1.08 1.08 2.646 1.92 4.93 1.92 1.923 0 3.546-.66 4.808-1.92 1.263-1.265 1.982-2.887 1.982-5.05 0-2.164-.72-3.787-1.982-5.05-1.262-1.262-2.885-1.923-4.868-1.923s-3.61.662-4.87 1.924z"/></g><path fill="#FF7915" d="M244.467 24.755c.25.168.493.343.738.516-.477-.34-.738-.515-.738-.515zM244.467 24.755s-.26.176-.735.523c.245-.174.487-.352.735-.523zM286.082 96.113c-.104-1.828-.31-3.65-.53-5.467-.258-1.815-.534-3.628-.907-5.428-.35-1.803-.772-3.596-1.248-5.377-1.896-7.126-4.768-14.05-8.438-20.62-1.843-3.285-3.874-6.488-6.096-9.587-2.21-3.105-4.594-6.117-7.145-9.014-2.55-2.9-5.262-5.69-8.128-8.353-1.434-1.33-2.906-2.63-4.423-3.887-1.52-1.256-3.07-2.484-4.703-3.625-1.614 1.15-3.144 2.385-4.642 3.65-1.495 1.265-2.947 2.57-4.358 3.908-2.825 2.675-5.49 5.48-7.995 8.388-2.504 2.91-4.848 5.926-7.01 9.04-2.176 3.104-4.167 6.31-5.965 9.595-3.588 6.573-6.393 13.482-8.236 20.59-.93 3.55-1.61 7.15-2.094 10.767-.217 1.81-.415 3.625-.516 5.445-.12 1.734-.156 3.47-.172 5.208 2.733-1.375 17.096-7.977 40.99-7.977 23.956 0 38.98 6.637 41.792 7.988-.017-1.75-.054-3.498-.178-5.243z"/><path fill="#FF8A33" d="M244.675 24.755s-89.904-1.92-98.9 72.882c0 0 7.47-6.64 28.608-6.64 15.777 0 25.882 8.15 28.13 10.157.02-1.69.064-3.38.186-5.066.106-1.835.312-3.665.537-5.49.258-1.824.532-3.647.912-5.454.358-1.81.792-3.607 1.273-5.394 1.926-7.15 4.816-14.084 8.486-20.668 3.667-6.587 8.143-12.814 13.27-18.58 2.56-2.884 5.28-5.66 8.153-8.3 1.436-1.322 2.912-2.61 4.43-3.857 1.52-1.245 3.07-2.462 4.704-3.59l.103.072.105-.072z"/><path fill="#FF8A33" d="M244.467 24.755c-1.614 1.15-3.144 2.385-4.642 3.65-1.495 1.265-2.947 2.57-4.358 3.908-.396.375-.782.758-1.17 1.14 5.43-5.202 9.578-8.144 10.272-8.625l-.103-.073z"/><g><path fill="#FF8A33" d="M244.467 24.755s.26.173.738.516c1.384.973 2.718 2 4.026 3.05 1.54 1.24 3.038 2.52 4.495 3.833 2.916 2.627 5.682 5.388 8.285 8.262 2.605 2.874 5.057 5.86 7.317 8.956 2.262 3.097 4.333 6.3 6.217 9.59 3.755 6.583 6.715 13.53 8.692 20.703.496 1.792.94 3.596 1.31 5.413.388 1.814.67 3.644.937 5.474.23 1.834.44 3.67.552 5.515.126 1.684.17 3.37.192 5.057 2.16-2.06 11.616-10.125 27.246-10.125 21.055 0 28.48 6.64 28.48 6.64-8.96-74.803-98.486-72.882-98.486-72.882z"/></g><g><path fill="#FFD8BD" d="M286.262 101.597c-.015-1.83-.05-3.658-.18-5.484-.104-1.828-.31-3.65-.53-5.467-.258-1.815-.534-3.628-.907-5.428-.35-1.803-.772-3.596-1.248-5.377-1.896-7.126-4.768-14.05-8.438-20.62-1.843-3.285-3.874-6.488-6.096-9.587-2.21-3.105-4.594-6.117-7.145-9.014-2.55-2.9-5.262-5.69-8.128-8.353-1.434-1.33-2.906-2.63-4.423-3.887-1.52-1.256-3.07-2.484-4.703-3.625-1.614 1.15-3.144 2.385-4.642 3.65-1.495 1.265-2.947 2.57-4.358 3.908-2.825 2.675-5.49 5.48-7.995 8.388-2.504 2.91-4.848 5.926-7.01 9.04-2.176 3.104-4.167 6.31-5.965 9.595-3.588 6.573-6.393 13.482-8.236 20.59-.93 3.55-1.61 7.15-2.094 10.767-.217 1.81-.415 3.625-.516 5.445-.126 1.818-.16 3.64-.174 5.46-.002.254-.227.363-.227.363l-.016.008c-.23.12-.523.053-.66-.148-.046-.07-.068-.146-.067-.22.02-1.838.06-3.676.193-5.51.107-1.835.313-3.665.538-5.49.258-1.824.532-3.647.912-5.454.36-1.81.793-3.607 1.274-5.394 1.926-7.15 4.816-14.084 8.486-20.668 3.668-6.587 8.144-12.814 13.27-18.58 2.562-2.884 5.28-5.66 8.154-8.3 1.436-1.322 2.912-2.61 4.43-3.857 1.52-1.245 3.07-2.462 4.704-3.59 1.652 1.12 3.224 2.328 4.765 3.564 1.54 1.24 3.037 2.52 4.494 3.834 2.916 2.627 5.682 5.388 8.285 8.262 2.605 2.874 5.057 5.86 7.317 8.956 2.26 3.096 4.332 6.3 6.216 9.59 3.755 6.582 6.715 13.53 8.692 20.702.496 1.792.94 3.596 1.31 5.413.388 1.814.67 3.644.937 5.474.23 1.835.44 3.672.552 5.516.138 1.842.18 3.688.198 5.533.002.235-.21.427-.48.43-.086 0-.168-.02-.24-.055l-.016-.008c-.002-.002-.234-.128-.238-.37z"/></g><g fill="#787D7F"><path d="M20.804 271.977c-.46-.22-1.002-.32-1.463-.32-1.34 0-2.143.642-2.143 1.482 0 3.044 6.812 2.103 6.812 7.052 0 3.545-2.646 4.606-5.77 4.606-1.424 0-3.187-.22-4.59-.74 0-1.103.14-2.905.34-3.968.643 0 1.864.14 2.506.36v2.044c.68.24 1.422.42 2.164.42 1.502 0 2.424-.682 2.424-1.883 0-3.164-6.872-1.902-6.872-7.31 0-2.425 1.943-3.928 5.15-3.928 1.26 0 2.983.28 4.206.7 0 .963-.18 2.605-.42 3.587-.662 0-1.744-.22-2.345-.5v-1.603zM39.777 277.104c0 4.87-2.645 7.693-6.73 7.693-4.368 0-6.793-2.664-6.793-7.693 0-4.508 2.925-7.312 6.792-7.312 4.047 0 6.73 2.604 6.73 7.312zm-6.73 5.71c2.323 0 3.465-2.164 3.465-5.71 0-3.126-1.382-5.35-3.466-5.35-2.284 0-3.506 2.063-3.506 5.35 0 3.487 1.302 5.71 3.506 5.71zM46.41 282.273c.62.04 1.482.16 2.004.28.14.44.18 1.423.1 1.843h-6.972c.04-.5.22-1.4.4-1.803.3-.12 1.022-.26 1.383-.32v-9.998c-.42-.04-1.002-.14-1.322-.24-.08-.58-.12-1.2-.02-1.844H52.44V274c-.68 0-1.702-.14-2.304-.34-.1-.362-.24-1.145-.28-1.584H46.41v4.508h2.765c.02-.24.1-.682.18-.962.562-.18 1.464-.32 2.185-.32v4.327c-.66.06-1.623.02-2.204-.18-.08-.263-.16-.742-.18-1.023H46.41v3.846zM62.02 282.273c.62.04 1.462.16 1.982.28.14.44.18 1.423.1 1.843H56.79c.04-.5.3-1.383.48-1.782.382-.12 1.203-.28 1.664-.34v-10.198H56.71c-.04.42-.16 1.222-.26 1.623-.723.24-1.645.278-2.325.278v-3.787h12.722v3.85c-.76 0-1.663-.08-2.344-.28-.12-.44-.24-1.203-.28-1.684H62.02v10.197zM74.822 281.854c.02-1.082.24-2.785.5-3.807l2.125-8.033h2.805l2.043 8.053c.22.883.42 2.465.44 3.627h.24c.02-1.183.302-2.766.562-3.646l1.103-3.688c.22-.72.56-1.562.9-2.104-.34-.02-.84-.102-1.18-.2-.142-.44-.262-1.362-.262-1.864h4.93c0 .54-.12 1.463-.282 1.925-.3.08-.7.14-1.02.16l-4.008 12.342h-2.604l-2.044-8.397c-.22-.902-.36-2.265-.4-3.346h-.24c-.04 1.062-.2 2.464-.44 3.365l-2.204 8.395H72.9l-3.686-12.38c-.3-.04-.74-.142-1.002-.24-.16-.48-.28-1.243-.32-1.825h5.89c0 .502-.16 1.404-.34 1.925-.24.08-1.022.16-1.323.16.32.5.66 1.303.88 2.083l1.003 3.688c.28 1 .56 2.704.58 3.807h.24zM97.464 284.396c.04-.48.28-1.36.48-1.822.34-.12.9-.262 1.242-.32-.3-.36-.54-.86-.72-1.322l-.222-.562h-5.17l-.24.66c-.12.342-.36.963-.6 1.304.42.04 1.02.14 1.382.24.18.44.32 1.322.32 1.822h-5.65c.08-.62.28-1.303.48-1.803.24-.12.662-.24.963-.3l5.228-12.343h2.305l5.01 12.28c.32.062.78.182 1.08.302.16.54.28 1.303.32 1.863h-6.21zM95.6 272.878c-.06.802-.54 2.224-.78 2.864l-1.022 2.765h3.767l-1.062-2.805c-.22-.6-.62-2.003-.66-2.824H95.6zM106.74 272.355c-.4 0-1.02-.06-1.34-.14-.08-.46-.102-1.403-.04-1.944 1.58-.18 4.065-.278 5.89-.278 3.345 0 5.79 1.263 5.79 4.228 0 1.903-1.283 3.226-2.886 3.827 1.142 2.062 2.545 3.906 3.126 4.268l1.102-.12c0 .62-.18 1.603-.42 2.083-.582.182-2.005.4-2.666.44-.74-.52-2.765-3.626-3.946-6.19-.602 0-1.143-.06-1.522-.14v3.886c.46.04 1.102.16 1.482.28.12.44.16 1.423.08 1.845h-6.432c.04-.503.22-1.403.4-1.805.3-.12 1.022-.26 1.383-.32v-9.92zm3.087 4.207c.42.08 1.122.12 1.662.12 1.342 0 2.443-.72 2.443-2.362 0-1.504-1.262-2.404-3.005-2.404-.38 0-.802.02-1.102.06v4.586zM119.726 284.396c.04-.5.22-1.4.4-1.803.3-.12 1.022-.26 1.383-.32v-9.998c-.422-.04-1.003-.14-1.323-.24-.08-.58-.12-1.2-.02-1.844h10.878v3.628c-.68 0-1.643-.1-2.264-.3-.1-.36-.2-1.022-.24-1.442h-3.946v4.146h3.105c.02-.22.1-.62.18-.882.56-.18 1.462-.3 2.184-.3v4.105c-.66.06-1.623.02-2.204-.16-.08-.24-.16-.682-.18-.922h-3.086v4.408h4.007c.04-.52.142-1.16.262-1.622.56-.18 1.703-.3 2.384-.3v3.847h-11.52zM137.537 282.693c0 1.264-.76 1.965-1.843 1.965-1.242 0-1.903-.682-1.903-1.965 0-1.102.782-1.822 1.904-1.822 1.082 0 1.843.662 1.843 1.823zM141.385 272.477c-.4-.04-.98-.12-1.322-.18-.08-.602-.14-1.223-.02-1.884 1.48-.18 4.407-.36 5.79-.36 4.647 0 7.812 2.164 7.812 6.973 0 5.23-3.565 7.514-7.032 7.514-1.883 0-5.05-.06-6.972-.182.04-.5.222-1.4.4-1.803.302-.12.983-.24 1.344-.3v-9.778zm3.085 10.017c.44.04 1.122.06 1.562.06 2.645 0 4.448-1.48 4.448-5.208 0-3.687-1.903-5.33-4.77-5.33-.34 0-.9.04-1.24.08v10.398zM155.01 284.396c.04-.5.22-1.4.4-1.803.3-.12 1.022-.26 1.383-.32v-9.998c-.42-.04-1.002-.14-1.322-.24-.08-.58-.12-1.2-.02-1.844h10.88v3.628c-.682 0-1.644-.1-2.265-.3-.1-.36-.2-1.022-.24-1.442h-3.947v4.146h3.105c.02-.22.1-.62.18-.882.562-.18 1.463-.3 2.185-.3v4.105c-.66.06-1.623.02-2.204-.16-.08-.24-.16-.682-.18-.922h-3.086v4.408h4.007c.04-.52.14-1.16.26-1.622.562-.18 1.704-.3 2.385-.3v3.847h-11.52zM175.968 271.977c-.46-.22-1.002-.32-1.463-.32-1.342 0-2.144.642-2.144 1.482 0 3.044 6.813 2.103 6.813 7.052 0 3.545-2.645 4.606-5.77 4.606-1.423 0-3.186-.22-4.588-.74 0-1.103.14-2.905.34-3.968.642 0 1.863.14 2.505.36v2.044c.68.24 1.422.42 2.164.42 1.502 0 2.424-.682 2.424-1.883 0-3.164-6.872-1.902-6.872-7.31 0-2.425 1.943-3.928 5.15-3.928 1.26 0 2.983.28 4.206.7 0 .963-.18 2.605-.42 3.587-.662 0-1.744-.22-2.345-.5v-1.603zM180.856 284.396c.04-.5.22-1.4.4-1.803.3-.12 1.022-.26 1.383-.32v-9.998c-.422-.04-1.002-.14-1.323-.24-.08-.58-.14-1.2-.02-1.844h5.93c.08.402.06 1.425-.04 1.846-.34.1-1.062.2-1.462.22v10.018c.5.04 1.182.16 1.603.28.08.28.12.802.12 1.243 0 .24-.02.46-.04.602h-6.552v-.004zM201.714 283.797c-1.183.4-3.827 1-5.71 1-4.207 0-6.73-2.902-6.73-7.15 0-4.71 3.124-7.854 7.952-7.854 1.724 0 3.226.44 4.588 1.242 0 1.002-.18 2.745-.4 3.646-.74 0-2.023-.3-2.444-.54v-2.043c-.52-.26-1.262-.4-1.863-.4-2.444 0-4.527 1.884-4.527 5.77 0 3.647 1.743 5.27 4.407 5.27.5 0 1.223-.06 1.764-.12v-3.425c-.64 0-1.902-.08-2.563-.222-.12-.48-.22-1.302-.22-1.803h7.412c0 .48-.102 1.302-.282 1.803-.32.08-1.04.18-1.382.2v4.63h-.002zM214.718 278.047c.48.88.842 1.963 1.02 2.984h.242v-8.755c-.48-.04-1.143-.14-1.503-.24-.08-.44-.12-1.422-.02-1.844h5.108c.04.163.06.442.06.743 0 .42-.04.86-.1 1.103-.3.1-.98.2-1.343.22v12.303h-3.105l-4.908-8.717c-.44-.802-.883-2.022-1.022-2.885h-.24v9.315c.48.04 1.102.16 1.502.28.12.44.16 1.423.08 1.843h-5.61c.04-.5.2-1.4.36-1.803.302-.12.923-.26 1.264-.32v-9.998c-.42-.04-1.002-.14-1.322-.24-.08-.44-.12-1.422-.02-1.844h5.168l4.388 7.857zM225.218 282.693c0 1.264-.76 1.965-1.843 1.965-1.242 0-1.903-.682-1.903-1.965 0-1.102.78-1.822 1.903-1.822 1.082 0 1.843.662 1.843 1.823zM229.064 272.337c-.4 0-1-.062-1.342-.12-.08-.46-.1-1.402-.04-1.943 1.603-.18 4.127-.28 5.97-.28 3.346 0 5.77 1.383 5.77 4.428 0 3.206-2.864 4.608-5.63 4.608-.64 0-1.24-.062-1.642-.14v3.384c.64.04 1.522.16 2.063.28.14.44.18 1.423.1 1.845h-7.032c.04-.503.222-1.403.402-1.804.3-.12 1.02-.262 1.382-.322v-9.937zm3.086 4.647c.46.08 1.142.12 1.703.12 1.422 0 2.464-.78 2.464-2.624 0-1.604-1.223-2.564-3.045-2.564-.38 0-.822.02-1.122.06v5.008zM242.49 272.355c-.4 0-1.022-.06-1.343-.14-.08-.46-.1-1.403-.04-1.944 1.582-.18 4.066-.278 5.89-.278 3.346 0 5.79 1.263 5.79 4.228 0 1.903-1.282 3.226-2.885 3.827 1.142 2.062 2.543 3.906 3.125 4.268l1.103-.12c0 .62-.18 1.603-.42 2.083-.582.182-2.005.4-2.666.44-.74-.52-2.765-3.626-3.946-6.19-.602 0-1.143-.06-1.522-.14v3.886c.46.04 1.102.16 1.482.28.12.44.16 1.423.08 1.845h-6.432c.04-.503.22-1.403.4-1.805.3-.12 1.022-.26 1.383-.32v-9.92zm3.085 4.207c.42.08 1.122.12 1.662.12 1.343 0 2.445-.72 2.445-2.362 0-1.504-1.263-2.404-3.006-2.404-.38 0-.802.02-1.102.06v4.586zM269.157 277.104c0 4.87-2.646 7.693-6.73 7.693-4.368 0-6.793-2.664-6.793-7.693 0-4.508 2.925-7.312 6.792-7.312 4.047 0 6.73 2.604 6.73 7.312zm-6.73 5.71c2.322 0 3.466-2.164 3.466-5.71 0-3.126-1.384-5.35-3.467-5.35-2.283 0-3.507 2.063-3.507 5.35 0 3.487 1.303 5.71 3.506 5.71zM276.19 279.55c0 3.966-1.783 6.892-5.31 8.515-.36-.36-.802-1.123-.94-1.623 2.323-1.342 3.165-3.605 3.165-6.37v-7.794c-.54-.04-1.282-.14-1.703-.24-.08-.58-.12-1.202-.02-1.844h6.31c.04.16.06.44.06.74 0 .422-.04.862-.1 1.104-.34.1-1.062.2-1.463.22v7.29zM279.037 284.396c.04-.5.22-1.4.4-1.803.3-.12 1.02-.26 1.383-.32v-9.998c-.422-.04-1.002-.14-1.322-.24-.08-.58-.12-1.2-.02-1.844h10.878v3.628c-.682 0-1.643-.1-2.264-.3-.1-.36-.2-1.022-.24-1.442h-3.947v4.146h3.105c.02-.22.1-.62.182-.882.56-.18 1.46-.3 2.184-.3v4.105c-.66.06-1.623.02-2.204-.16-.08-.24-.16-.682-.18-.922h-3.087v4.408h4.008c.04-.52.14-1.16.26-1.622.563-.18 1.704-.3 2.385-.3v3.847h-11.52zM301.598 272.076c-.44-.2-.902-.3-1.443-.3-2.344 0-4.088 1.763-4.088 5.368 0 3.627 1.744 5.31 4.168 5.31 1.04 0 2.766-.28 4.088-.763.06.563-.16 1.524-.48 2.046-1.162.6-2.744 1.062-4.308 1.062-4.067 0-6.752-3.065-6.752-7.372 0-4.79 3.386-7.634 7.553-7.634 1.522 0 2.985.38 4.106.94 0 1.203-.16 2.865-.38 3.888-.762 0-1.884-.26-2.464-.58v-1.964zM314.182 282.273c.62.04 1.46.16 1.982.28.14.44.18 1.423.1 1.843h-7.312c.04-.5.3-1.383.48-1.782.38-.12 1.2-.28 1.662-.34v-10.198h-2.224c-.04.42-.16 1.222-.262 1.623-.72.24-1.643.278-2.322.278v-3.787h12.722v3.85c-.762 0-1.663-.08-2.344-.28-.12-.44-.24-1.203-.28-1.684h-2.203v10.197h.002zM329.367 276.02c-.32-.86-.66-2.44-.762-3.483h-.24v9.757c.4.04.962.16 1.303.28.102.44.14 1.402.06 1.822H324.6c.04-.5.2-1.4.342-1.803.28-.12.84-.26 1.16-.32v-9.998c-.38-.04-.92-.14-1.222-.24-.08-.44-.12-1.422-.02-1.844h5.51l2.765 7.396c.34.88.66 2.523.72 3.546h.24c.042-1.002.4-2.705.724-3.526l2.823-7.412h5.31c.08.4.062 1.423-.04 1.844-.342.1-1.062.2-1.463.22v10.1c.46.038 1.12.14 1.583.24.1.26.14.78.14 1.222 0 .24-.02.44-.04.58h-6.01c.04-.5.2-1.4.36-1.803.3-.12.86-.26 1.223-.32v-9.816h-.24c-.16 1.163-.48 2.665-.86 3.728l-2.985 8.436h-2.144l-3.11-8.603zM353.632 284.396c.04-.48.28-1.36.48-1.822.34-.12.9-.262 1.24-.32-.298-.36-.538-.86-.72-1.322l-.22-.562h-5.17l-.24.66c-.12.342-.36.963-.6 1.304.42.04 1.02.14 1.38.24.182.44.32 1.322.32 1.822h-5.648c.08-.62.28-1.303.48-1.803.24-.12.66-.24.96-.3l5.23-12.343h2.304l5.01 12.28c.32.062.78.182 1.082.302.16.54.28 1.303.32 1.863h-6.208zm-1.862-11.518c-.06.802-.54 2.224-.78 2.864l-1.022 2.765h3.768l-1.062-2.805c-.22-.6-.62-2.003-.66-2.824h-.244zM371.124 278.047c.48.88.842 1.963 1.02 2.984h.24v-8.755c-.48-.04-1.14-.14-1.5-.24-.08-.44-.12-1.422-.022-1.844h5.11c.04.163.06.442.06.743 0 .42-.04.86-.1 1.103-.302.1-.982.2-1.344.22v12.303h-3.105l-4.907-8.717c-.44-.802-.882-2.022-1.02-2.885h-.243v9.315c.48.04 1.104.16 1.504.28.12.44.16 1.423.08 1.843h-5.61c.04-.5.2-1.4.36-1.803.3-.12.922-.26 1.264-.32v-9.998c-.42-.04-1-.14-1.32-.24-.082-.44-.122-1.422-.022-1.844h5.17l4.386 7.857zM385.893 284.396c.04-.48.28-1.36.48-1.822.34-.12.9-.262 1.24-.32-.3-.36-.54-.86-.72-1.322l-.222-.562h-5.168l-.24.66c-.12.342-.36.963-.6 1.304.42.04 1.02.14 1.38.24.182.44.32 1.322.32 1.822h-5.648c.08-.62.28-1.303.48-1.803.24-.12.66-.24.962-.3l5.23-12.343h2.302l5.01 12.28c.32.062.78.182 1.082.302.16.54.28 1.303.32 1.863h-6.207zm-1.866-11.518c-.06.802-.54 2.224-.78 2.864l-1.02 2.765h3.766l-1.062-2.805c-.22-.6-.62-2.003-.66-2.824h-.243zM405.507 283.797c-1.182.4-3.826 1-5.71 1-4.207 0-6.73-2.902-6.73-7.15 0-4.71 3.125-7.854 7.953-7.854 1.724 0 3.227.44 4.59 1.242 0 1.002-.183 2.745-.402 3.646-.74 0-2.023-.3-2.444-.54v-2.043c-.52-.26-1.262-.4-1.862-.4-2.443 0-4.527 1.884-4.527 5.77 0 3.647 1.743 5.27 4.407 5.27.5 0 1.223-.06 1.764-.12v-3.425c-.642 0-1.903-.08-2.563-.222-.12-.48-.222-1.302-.222-1.803h7.414c0 .48-.1 1.302-.28 1.803-.32.08-1.042.18-1.383.2v4.63h-.003zM426.443 276.02c-.32-.86-.662-2.44-.763-3.483h-.24v9.757c.4.04.962.16 1.303.28.1.44.14 1.402.06 1.822h-5.128c.04-.5.2-1.4.34-1.803.28-.12.843-.26 1.162-.32v-9.998c-.38-.04-.92-.14-1.222-.24-.08-.44-.12-1.422-.02-1.844h5.51l2.765 7.396c.34.88.66 2.523.722 3.546h.24c.04-1.002.4-2.705.722-3.526l2.824-7.412h5.31c.08.4.062 1.423-.04 1.844-.34.1-1.06.2-1.462.22v10.1c.46.038 1.122.14 1.583.24.1.26.14.78.14 1.222 0 .24-.02.44-.04.58h-6.01c.04-.5.2-1.4.358-1.803.302-.12.86-.26 1.224-.32v-9.816h-.24c-.16 1.163-.48 2.665-.862 3.728l-2.983 8.436h-2.146l-3.107-8.603zM441.79 284.396c.04-.5.22-1.4.4-1.803.302-.12 1.022-.26 1.384-.32v-9.998c-.42-.04-1.002-.14-1.322-.24-.08-.58-.12-1.2-.02-1.844h10.878v3.628c-.683 0-1.644-.1-2.265-.3-.1-.36-.2-1.022-.24-1.442h-3.946v4.146h3.103c.02-.22.1-.62.182-.882.56-.18 1.462-.3 2.184-.3v4.105c-.662.06-1.624.02-2.205-.16-.08-.24-.16-.682-.18-.922h-3.086v4.408h4.006c.04-.52.14-1.16.26-1.622.563-.18 1.704-.3 2.385-.3v3.847h-11.52zM465.293 278.047c.48.88.842 1.963 1.02 2.984h.24v-8.755c-.48-.04-1.142-.14-1.502-.24-.08-.44-.12-1.422-.02-1.844h5.108c.04.163.06.442.06.743 0 .42-.04.86-.1 1.103-.3.1-.98.2-1.343.22v12.303h-3.104l-4.907-8.717c-.44-.802-.882-2.022-1.02-2.885h-.24v9.315c.48.04 1.102.16 1.502.28.12.44.16 1.423.08 1.843h-5.61c.04-.5.2-1.4.36-1.803.302-.12.923-.26 1.264-.32v-9.998c-.422-.04-1.003-.14-1.323-.24-.08-.44-.12-1.422-.02-1.844h5.168l4.388 7.857zM479.42 282.273c.62.04 1.462.16 1.983.28.14.44.18 1.423.1 1.843h-7.312c.04-.5.302-1.383.48-1.782.38-.12 1.202-.28 1.663-.34v-10.198h-2.224c-.04.42-.16 1.222-.263 1.623-.72.24-1.643.278-2.322.278v-3.787h12.722v3.85c-.762 0-1.663-.08-2.344-.28-.12-.44-.24-1.203-.28-1.684h-2.204v10.197zM408.467 284.51c.04-.5.22-1.402.4-1.804.3-.12 1.02-.26 1.383-.32v-9.998c-.42-.04-1.002-.14-1.322-.24-.08-.58-.12-1.2-.02-1.844h10.878v3.627c-.683 0-1.644-.1-2.265-.3-.1-.36-.2-1.02-.238-1.44h-3.947v4.145h3.104c.02-.22.1-.62.18-.882.562-.18 1.463-.3 2.185-.3v4.105c-.66.06-1.623.02-2.204-.16-.08-.24-.16-.682-.18-.922h-3.085v4.408h4.007c.04-.52.14-1.162.26-1.623.563-.18 1.704-.3 2.385-.3v3.848h-11.52z"/></g></svg>