<svg xmlns="http://www.w3.org/2000/svg" width="500" height="314" viewBox="0 0 500 314"><path fill="#E6F0F4" d="M241 22.345V31h7v-8.655s-.916-1.459-3.327-1.459c-2.41-.001-3.673 1.459-3.673 1.459zM264.775 155.77c0 5.972-3.426 7.854-9.396 7.854s-8.38-1.692-8.38-7.662V91h-5v64.962c0 8.289 5.008 11.955 13.297 11.955s14.023-3.778 14.023-12.067c0 0-.172-2.073-2.209-2.073-2.032 0-2.335 1.993-2.335 1.993z"/><path fill="#E6F0F4" d="M254.475 168.463c-8.616 0-12.627-3.973-12.627-12.5v-10.595h5.162v10.595c0 5.653 1.457 7.117 7.085 7.117 6.821 0 10.141-2.391 10.141-7.31.043-.895.656-2.539 2.679-2.539.745 0 1.352.232 1.801.689.756.768.746 1.891.746 1.938-.006 7.889-5.607 12.605-14.987 12.605z"/><path fill="#E6F0F4" d="M246.462 145.913v10.049c0 5.97 1.661 7.662 7.631 7.662 5.972 0 10.685-1.883 10.685-7.854 0 0 .099-1.993 2.135-1.993 2.033 0 2.001 2.073 2.001 2.073 0 8.289-6.146 12.067-14.438 12.067-8.29 0-12.083-3.666-12.083-11.955v-10.049h4.069m1.09-1.09H241.301v11.139c0 4.479 1.066 7.706 3.259 9.863 2.176 2.142 5.419 3.183 9.915 3.183 9.726 0 15.526-4.919 15.526-13.158.002-.125-.004-1.398-.901-2.312-.383-.388-1.072-.852-2.188-.852-2.26 0-3.163 1.812-3.225 3.031l-.002.026v.026c0 1.673 0 6.764-9.593 6.764-5.379 0-6.541-1.167-6.541-6.571v-11.139h.001z"/><g fill="#E6F0F4"><path d="M156.916 200.576c3.484 0 7.332.48 10.518 3.306 3.427 3.007 3.907 6.974 3.907 9.737 0 5.049-1.924 7.874-3.426 9.438-3.187 3.244-7.395 3.545-10.219 3.545h-5.649v14.064h-9.256v-40.09h14.125zm-4.869 18.451h3.306c1.264 0 3.486-.062 4.989-1.502.842-.842 1.503-2.227 1.503-3.967 0-1.686-.602-3.065-1.503-3.906-1.383-1.322-3.366-1.504-5.169-1.504h-3.126v10.879zM177.652 213.859h8.655v4.207c.781-1.502 1.983-2.885 3.366-3.729 1.441-.899 2.945-1.144 4.628-1.144 1.082 0 1.863.119 2.825.423l-.481 8.112a8.144 8.144 0 0 0-3.906-.963c-1.862 0-3.245.662-4.327 1.803-1.924 2.047-2.104 4.932-2.104 7.216v10.879h-8.655v-26.804h-.001zM227.479 237.24c-2.403 2.404-6.491 4.326-11.721 4.326s-9.316-1.922-11.721-4.326c-2.704-2.705-4.026-6.553-4.026-9.979 0-3.426 1.322-7.271 4.026-9.978 2.403-2.404 6.491-4.327 11.721-4.327 5.229 0 9.316 1.923 11.721 4.327 2.704 2.705 4.026 6.552 4.026 9.978 0 3.427-1.321 7.274-4.026 9.979zm-16.588-15.026c-1.263 1.263-1.982 2.886-1.982 5.05 0 2.463.962 4.026 1.982 5.049 1.082 1.082 2.646 1.922 4.929 1.922 1.924 0 3.547-.658 4.809-1.922 1.263-1.264 1.982-2.886 1.982-5.049 0-2.164-.721-3.787-1.982-5.05-1.262-1.262-2.885-1.923-4.868-1.923s-3.609.661-4.87 1.923zM247.796 220.832v19.834h-8.655v-19.834h-3.125v-6.973h3.125v-5.289c0-3.006.301-6.432 3.006-9.316 1.743-1.863 4.207-3.064 7.514-3.064 1.923 0 3.485.36 4.929.901v7.572c-.962-.601-2.227-1.021-3.306-1.021-1.322 0-2.164.602-2.524 1.082-.962 1.262-.962 3.363-.962 4.627v4.508h6.852v6.974l-6.854-.001zM286.984 228.766h-20.018c0 1.442.541 3.365 1.623 4.567 1.322 1.442 3.126 1.685 4.448 1.685 1.262 0 2.584-.242 3.482-.783.121-.06 1.146-.721 1.863-2.223l8.176.842c-1.203 3.785-3.604 5.771-5.17 6.73-2.584 1.562-5.47 1.982-8.475 1.982-4.027 0-7.573-.723-10.699-3.848-2.344-2.345-4.025-5.891-4.025-10.339 0-3.847 1.383-7.812 4.086-10.577 3.246-3.244 7.272-3.848 10.277-3.848 3.006 0 7.334.541 10.639 4.025 3.188 3.365 3.787 7.572 3.787 10.879v.902h.004l.002.006zm-7.994-5.168c-.061-.242-.48-1.925-1.742-3.127-.962-.898-2.346-1.502-4.087-1.502-2.226 0-3.548.901-4.39 1.742-.66.723-1.264 1.684-1.502 2.887h11.721zM293.896 213.859h8.653v4.207c.78-1.502 1.982-2.885 3.365-3.729 1.442-.899 2.944-1.144 4.629-1.144 1.082 0 1.862.119 2.824.423l-.48 8.112a8.14 8.14 0 0 0-3.905-.963c-1.862 0-3.246.662-4.326 1.803-1.924 2.047-2.104 4.932-2.104 7.216v10.879h-8.653v-26.808h-.002l-.001.004zM343.725 237.24c-2.403 2.404-6.491 4.326-11.721 4.326s-9.316-1.922-11.722-4.326c-2.704-2.705-4.025-6.553-4.025-9.979 0-3.426 1.321-7.271 4.025-9.978 2.403-2.404 6.49-4.327 11.722-4.327 5.229 0 9.315 1.923 11.721 4.327 2.705 2.705 4.026 6.552 4.026 9.978 0 3.427-1.321 7.274-4.026 9.979zm-16.589-15.026c-1.264 1.263-1.982 2.886-1.982 5.05 0 2.463.961 4.026 1.982 5.049 1.081 1.082 2.646 1.922 4.93 1.922 1.924 0 3.547-.658 4.809-1.922 1.264-1.264 1.981-2.886 1.981-5.049 0-2.164-.721-3.787-1.981-5.05-1.262-1.262-2.885-1.923-4.867-1.923-1.985 0-3.612.661-4.872 1.923z"/></g><path fill="#FF7915" d="M244.467 24.755c.249.168.493.343.738.516-.477-.342-.738-.516-.738-.516zM244.467 24.755s-.259.176-.735.523c.245-.174.487-.352.735-.523z"/><path fill="#FF7915" d="M286.082 96.113c-.104-1.828-.31-3.649-.53-5.467-.258-1.815-.534-3.628-.907-5.428a79.551 79.551 0 0 0-1.248-5.377c-1.896-7.127-4.768-14.05-8.438-20.622a102.313 102.313 0 0 0-6.096-9.586 111.33 111.33 0 0 0-7.146-9.014c-2.549-2.9-5.261-5.69-8.127-8.352a105.446 105.446 0 0 0-4.423-3.887c-1.52-1.256-3.069-2.484-4.702-3.625-1.614 1.149-3.145 2.385-4.642 3.649a104.173 104.173 0 0 0-4.358 3.909 113.94 113.94 0 0 0-7.995 8.388 110.011 110.011 0 0 0-7.009 9.039 101.888 101.888 0 0 0-5.966 9.595c-3.588 6.573-6.394 13.482-8.236 20.589-.932 3.551-1.611 7.15-2.095 10.768-.217 1.811-.415 3.625-.517 5.445-.12 1.734-.155 3.471-.172 5.208 2.733-1.375 17.096-7.977 40.99-7.977 23.956 0 38.98 6.637 41.792 7.988-.014-1.749-.051-3.498-.175-5.243z"/><path fill="#FF8A33" d="M244.675 24.755s-89.904-1.921-98.9 72.882c0 0 7.47-6.641 28.608-6.641 15.777 0 25.882 8.151 28.129 10.158.021-1.69.065-3.379.188-5.066.106-1.835.312-3.665.537-5.491.259-1.823.532-3.646.912-5.453.359-1.81.793-3.607 1.274-5.394 1.926-7.149 4.815-14.084 8.486-20.668 3.668-6.587 8.144-12.814 13.271-18.579a114.732 114.732 0 0 1 8.153-8.301 105.501 105.501 0 0 1 4.429-3.857c1.521-1.245 3.072-2.462 4.705-3.59l.103.072.105-.072z"/><path fill="#FF8A33" d="M244.467 24.755c-1.614 1.149-3.145 2.385-4.642 3.649a104.173 104.173 0 0 0-4.358 3.909c-.396.375-.782.758-1.171 1.139 5.431-5.201 9.579-8.143 10.272-8.624l-.101-.073z"/><g><path fill="#FF8A33" d="M244.467 24.755s.26.173.738.516a78.23 78.23 0 0 1 4.025 3.049 106.21 106.21 0 0 1 4.494 3.833 114.926 114.926 0 0 1 8.285 8.262 109.447 109.447 0 0 1 7.317 8.956c2.262 3.096 4.333 6.3 6.217 9.589 3.755 6.583 6.715 13.531 8.691 20.703a83.11 83.11 0 0 1 1.312 5.413c.387 1.814.668 3.644.936 5.474.229 1.834.44 3.671.554 5.515.126 1.684.169 3.371.19 5.057 2.16-2.061 11.616-10.125 27.246-10.125 21.056 0 28.479 6.641 28.479 6.641-8.959-74.804-98.484-72.883-98.484-72.883z"/></g><g><path fill="#FFD8BD" d="M286.262 101.597c-.015-1.829-.05-3.658-.18-5.484-.104-1.828-.31-3.649-.53-5.467-.258-1.815-.534-3.628-.907-5.428a79.551 79.551 0 0 0-1.248-5.377c-1.896-7.127-4.768-14.05-8.438-20.622a102.313 102.313 0 0 0-6.096-9.586 111.33 111.33 0 0 0-7.146-9.014c-2.549-2.9-5.261-5.69-8.127-8.352a105.446 105.446 0 0 0-4.423-3.887c-1.52-1.256-3.069-2.484-4.702-3.625-1.614 1.149-3.145 2.385-4.642 3.649a104.173 104.173 0 0 0-4.358 3.909 113.94 113.94 0 0 0-7.995 8.388 110.011 110.011 0 0 0-7.009 9.039 101.888 101.888 0 0 0-5.966 9.595c-3.588 6.573-6.394 13.482-8.236 20.589-.932 3.551-1.611 7.15-2.095 10.768-.217 1.811-.415 3.625-.517 5.445-.126 1.818-.161 3.64-.174 5.461-.002.253-.227.362-.227.362l-.016.008a.52.52 0 0 1-.66-.148.388.388 0 0 1-.066-.221c.02-1.837.061-3.675.193-5.509.106-1.835.312-3.665.537-5.491.259-1.823.532-3.646.912-5.453.359-1.81.793-3.607 1.274-5.394 1.926-7.149 4.815-14.084 8.486-20.668 3.668-6.587 8.144-12.814 13.271-18.579a114.732 114.732 0 0 1 8.153-8.301 105.501 105.501 0 0 1 4.429-3.857c1.521-1.245 3.072-2.462 4.705-3.59 1.652 1.119 3.224 2.328 4.765 3.564a106.21 106.21 0 0 1 4.494 3.833 114.926 114.926 0 0 1 8.285 8.262 109.447 109.447 0 0 1 7.317 8.956c2.262 3.096 4.333 6.3 6.217 9.589 3.755 6.583 6.715 13.531 8.691 20.703a83.11 83.11 0 0 1 1.312 5.413c.387 1.814.668 3.644.936 5.474.229 1.834.44 3.671.554 5.515.138 1.842.179 3.688.196 5.533.002.236-.211.428-.479.43a.53.53 0 0 1-.24-.054l-.017-.008c.003-.002-.229-.128-.233-.37z"/></g><g fill="#6E7172"><path d="M38.524 274.105c-.46-.221-1-.32-1.46-.32-1.34 0-2.14.64-2.14 1.48 0 3.04 6.801 2.101 6.801 7.041 0 3.541-2.641 4.602-5.761 4.602-1.42 0-3.181-.221-4.581-.74 0-1.101.14-2.9.34-3.961.64 0 1.86.14 2.5.36v2.04c.68.24 1.42.42 2.16.42 1.5 0 2.421-.68 2.421-1.88 0-3.161-6.862-1.9-6.862-7.302 0-2.421 1.94-3.921 5.141-3.921 1.26 0 2.981.28 4.201.7 0 .96-.18 2.601-.42 3.581-.66 0-1.74-.221-2.34-.501v-1.599zM57.665 279.227c0 4.86-2.641 7.682-6.721 7.682-4.361 0-6.782-2.661-6.782-7.682 0-4.501 2.921-7.302 6.782-7.302 4.041 0 6.721 2.6 6.721 7.302zm-6.721 5.701c2.32 0 3.46-2.161 3.46-5.701 0-3.121-1.38-5.342-3.46-5.342-2.281 0-3.501 2.061-3.501 5.342 0 3.48 1.3 5.701 3.501 5.701zM64.483 284.388c.62.04 1.48.16 2 .279.14.44.18 1.421.1 1.841h-6.961c.04-.5.22-1.4.4-1.801.3-.119 1.02-.26 1.38-.319v-9.982c-.42-.04-1-.14-1.32-.24-.08-.58-.12-1.2-.02-1.84h10.442v3.801c-.68 0-1.701-.141-2.301-.341-.1-.359-.24-1.14-.28-1.58h-3.441v4.501h2.761c.02-.24.1-.68.18-.96.56-.181 1.46-.32 2.18-.32v4.321c-.66.06-1.62.02-2.2-.181-.08-.26-.16-.74-.18-1.02h-2.741v3.841zM80.264 284.388c.62.04 1.46.16 1.98.279.14.44.18 1.421.1 1.841h-7.301c.04-.5.3-1.38.48-1.78.38-.12 1.2-.28 1.66-.34v-10.183h-2.22c-.04.42-.16 1.221-.26 1.62-.72.24-1.64.28-2.32.28v-3.78h12.703v3.841c-.76 0-1.66-.08-2.34-.28-.12-.44-.24-1.2-.28-1.681h-2.2v10.183zM93.243 283.967c.02-1.08.24-2.78.5-3.801l2.12-8.021h2.801l2.041 8.042c.22.88.42 2.461.44 3.621h.24c.02-1.181.3-2.761.56-3.642l1.1-3.681c.22-.72.56-1.56.9-2.101-.34-.02-.84-.1-1.181-.199-.14-.44-.26-1.36-.26-1.86h4.921c0 .54-.12 1.46-.28 1.92-.3.08-.7.14-1.021.16l-4.001 12.322h-2.6l-2.041-8.382c-.22-.899-.36-2.26-.4-3.341h-.24c-.04 1.061-.2 2.461-.44 3.361l-2.2 8.382h-2.881l-3.681-12.363a5.22 5.22 0 0 1-1-.239c-.16-.48-.28-1.24-.32-1.82h5.881c0 .5-.16 1.399-.34 1.92-.24.08-1.02.16-1.32.16.32.5.66 1.3.88 2.08l1 3.681c.28 1.001.56 2.701.58 3.801h.242zM116.044 286.508c.04-.48.28-1.36.48-1.82.34-.12.9-.26 1.24-.32-.3-.36-.54-.86-.72-1.32l-.22-.56h-5.161l-.24.66c-.12.34-.36.96-.6 1.3.42.04 1.02.141 1.38.24.18.44.32 1.32.32 1.82h-5.641c.08-.62.28-1.3.48-1.801.24-.119.66-.239.96-.3l5.221-12.322h2.3l5.001 12.263c.32.06.78.18 1.081.3.16.54.28 1.3.32 1.86h-6.201zm-1.861-11.503c-.06.801-.54 2.221-.78 2.861l-1.02 2.761h3.761l-1.061-2.801c-.22-.601-.62-2.001-.66-2.821h-.24zM125.502 274.485c-.4 0-1.02-.061-1.34-.14-.08-.461-.1-1.4-.04-1.94 1.581-.181 4.061-.28 5.881-.28 3.341 0 5.781 1.26 5.781 4.221 0 1.9-1.28 3.221-2.881 3.82 1.141 2.061 2.541 3.901 3.121 4.262l1.101-.12c0 .62-.18 1.6-.42 2.08-.58.18-2 .4-2.66.44-.74-.521-2.761-3.621-3.941-6.182-.6 0-1.141-.06-1.521-.14v3.881c.46.04 1.1.16 1.48.279.12.44.16 1.421.08 1.841h-6.421c.04-.5.22-1.4.4-1.801.3-.119 1.02-.26 1.38-.319v-9.902zm3.08 4.202c.42.08 1.12.12 1.66.12 1.34 0 2.441-.721 2.441-2.361 0-1.5-1.26-2.4-3.001-2.4-.38 0-.8.021-1.1.061v4.58zM138.661 286.508c.04-.5.22-1.4.4-1.801.3-.119 1.02-.26 1.38-.319v-9.982c-.42-.04-1-.14-1.32-.24-.08-.58-.12-1.2-.02-1.84h10.862v3.62c-.68 0-1.64-.1-2.26-.3-.1-.36-.2-1.021-.24-1.44h-3.941v4.141h3.101c.02-.22.1-.62.18-.88.56-.18 1.46-.3 2.181-.3v4.101c-.66.061-1.621.021-2.201-.16-.08-.24-.16-.68-.18-.92h-3.081v4.401h4.001c.04-.521.14-1.161.26-1.621.561-.18 1.701-.3 2.381-.3v3.841h-11.503zM156.642 284.808c0 1.26-.76 1.96-1.84 1.96-1.24 0-1.9-.68-1.9-1.96 0-1.101.78-1.82 1.9-1.82 1.08-.001 1.84.659 1.84 1.82zM167.943 274.205c-.44-.2-.9-.3-1.44-.3-2.341 0-4.081 1.76-4.081 5.361 0 3.62 1.74 5.301 4.161 5.301 1.04 0 2.76-.28 4.081-.76.06.56-.16 1.52-.48 2.04-1.16.601-2.741 1.061-4.301 1.061-4.061 0-6.742-3.061-6.742-7.362 0-4.78 3.381-7.621 7.542-7.621 1.52 0 2.98.38 4.101.94 0 1.2-.16 2.86-.38 3.881-.76 0-1.88-.261-2.46-.58v-1.961zM186.404 279.227c0 4.86-2.641 7.682-6.721 7.682-4.361 0-6.782-2.661-6.782-7.682 0-4.501 2.921-7.302 6.782-7.302 4.04 0 6.721 2.6 6.721 7.302zm-6.721 5.701c2.32 0 3.46-2.161 3.46-5.701 0-3.121-1.38-5.342-3.46-5.342-2.281 0-3.501 2.061-3.501 5.342 0 3.48 1.3 5.701 3.501 5.701zM198.343 280.166c.48.881.84 1.961 1.021 2.981h.24v-8.742c-.48-.04-1.14-.14-1.5-.24-.08-.44-.12-1.42-.02-1.84h5.101c.04.159.06.439.06.739 0 .421-.04.86-.1 1.101-.3.101-.98.2-1.34.22v12.283h-3.101l-4.901-8.702c-.44-.8-.88-2.021-1.02-2.881h-.24v9.303c.48.04 1.1.16 1.5.279.12.44.16 1.421.08 1.841h-5.602c.04-.5.2-1.4.36-1.801.3-.119.92-.26 1.26-.319v-9.982c-.42-.04-1-.14-1.32-.24-.08-.44-.12-1.42-.02-1.84h5.161l4.381 7.84zM212.162 274.105c-.46-.221-1-.32-1.46-.32-1.34 0-2.14.64-2.14 1.48 0 3.04 6.801 2.101 6.801 7.041 0 3.541-2.641 4.602-5.761 4.602-1.42 0-3.181-.221-4.581-.74 0-1.101.14-2.9.34-3.961.64 0 1.86.14 2.5.36v2.04c.68.24 1.42.42 2.16.42 1.5 0 2.421-.68 2.421-1.88 0-3.161-6.862-1.9-6.862-7.302 0-2.421 1.94-3.921 5.141-3.921 1.26 0 2.981.28 4.201.7 0 .96-.18 2.601-.42 3.581-.66 0-1.74-.221-2.34-.501v-1.599zM222.102 281.007c0 2.601.92 3.881 3 3.881 2.28 0 3.181-1.641 3.181-3.881v-6.602c-.38-.04-.92-.14-1.22-.24-.08-.44-.12-1.42-.021-1.84h4.921c.04.159.061.439.061.739 0 .421-.04.86-.101 1.101-.279.101-.899.2-1.24.22v6.481c0 3.581-1.74 6.042-6.101 6.042-3.841 0-5.562-1.921-5.562-5.741v-6.821c-.4-.04-.96-.12-1.32-.221-.1-.439-.18-1.32-.18-1.8h5.981c.08.399.061 1.42-.04 1.84-.319.101-.979.2-1.359.22v6.622zM235.34 274.405c-.42-.04-1-.14-1.32-.24-.079-.58-.14-1.2-.02-1.84h6.501c.08.399.061 1.42-.06 1.84-.46.101-1.48.2-2.021.22v10.163h4.061c.04-.541.2-1.521.301-1.961.62-.22 1.76-.34 2.42-.34v4.261H233.56c.04-.5.221-1.4.4-1.801.3-.119 1.021-.26 1.38-.319v-9.983zM253.461 284.388c.62.04 1.461.16 1.98.279.141.44.181 1.421.101 1.841h-7.302c.04-.5.3-1.38.479-1.78.381-.12 1.201-.28 1.661-.34v-10.183h-2.221c-.04.42-.16 1.221-.26 1.62-.721.24-1.641.28-2.321.28v-3.78h12.703v3.841c-.76 0-1.66-.08-2.341-.28-.12-.44-.239-1.2-.279-1.681h-2.201v10.183zM259.8 286.508c.04-.5.221-1.4.4-1.801.3-.119 1.021-.26 1.38-.319v-9.982c-.42-.04-1-.14-1.32-.24-.079-.58-.14-1.2-.02-1.84h5.921c.08.399.061 1.42-.04 1.84-.34.101-1.06.2-1.46.22v10.003c.5.04 1.181.16 1.601.279.08.28.12.801.12 1.24 0 .24-.021.461-.04.601H259.8zM278.102 280.166c.48.881.84 1.961 1.021 2.981h.24v-8.742c-.48-.04-1.141-.14-1.501-.24-.08-.44-.12-1.42-.02-1.84h5.101c.04.159.061.439.061.739 0 .421-.04.86-.101 1.101-.3.101-.979.2-1.34.22v12.283h-3.101l-4.901-8.702c-.44-.8-.88-2.021-1.021-2.881h-.239v9.303c.479.04 1.1.16 1.5.279.12.44.16 1.421.08 1.841h-5.602c.04-.5.2-1.4.36-1.801.3-.119.92-.26 1.26-.319v-9.982c-.42-.04-1-.14-1.32-.24-.079-.44-.119-1.42-.02-1.84h5.161l4.382 7.84zM297.182 285.907c-1.181.4-3.821 1.001-5.701 1.001-4.201 0-6.722-2.901-6.722-7.142 0-4.701 3.121-7.842 7.941-7.842 1.721 0 3.221.44 4.581 1.24 0 1-.18 2.74-.399 3.641-.74 0-2.021-.3-2.44-.54v-2.04c-.521-.261-1.261-.4-1.86-.4-2.441 0-4.521 1.88-4.521 5.761 0 3.642 1.74 5.262 4.401 5.262.5 0 1.22-.061 1.76-.12v-3.421c-.64 0-1.9-.08-2.561-.22a9.051 9.051 0 0 1-.22-1.801h7.401c0 .48-.1 1.301-.28 1.801a10.4 10.4 0 0 1-1.38.2v4.62zM304.68 284.808c0 1.26-.76 1.96-1.84 1.96-1.24 0-1.9-.68-1.9-1.96 0-1.101.78-1.82 1.9-1.82 1.08-.001 1.84.659 1.84 1.82zM311.86 278.146c-.319-.86-.659-2.441-.76-3.481h-.24v9.742c.4.04.961.16 1.301.28.1.44.14 1.4.06 1.82H307.1c.04-.5.2-1.4.34-1.801.28-.119.841-.26 1.161-.319v-9.982c-.381-.04-.921-.14-1.221-.24-.08-.44-.12-1.42-.02-1.84h5.501l2.761 7.381c.34.881.66 2.521.72 3.541h.24c.04-1 .399-2.7.72-3.521l2.821-7.401h5.301c.08.399.06 1.42-.04 1.84-.34.101-1.061.2-1.46.22v10.083c.46.04 1.12.14 1.58.239.1.261.14.78.14 1.221 0 .24-.02.44-.04.58h-6.001c.04-.5.2-1.4.36-1.801.3-.119.86-.26 1.22-.319v-9.803h-.24c-.159 1.16-.479 2.661-.859 3.721l-2.981 8.422h-2.14l-3.103-8.582zM336.281 286.508c.04-.48.28-1.36.48-1.82.34-.12.899-.26 1.24-.32-.301-.36-.541-.86-.721-1.32l-.22-.56h-5.161l-.24.66c-.12.34-.36.96-.601 1.3.421.04 1.021.141 1.381.24.18.44.32 1.32.32 1.82h-5.642c.08-.62.28-1.3.48-1.801.239-.119.66-.239.96-.3l5.221-12.322h2.301l5.001 12.263c.32.06.78.18 1.08.3.16.54.28 1.3.32 1.86h-6.199zm-1.86-11.503c-.061.801-.54 2.221-.78 2.861l-1.021 2.761h3.761l-1.06-2.801c-.221-.601-.62-2.001-.66-2.821h-.24zM353.941 280.166c.48.881.84 1.961 1.021 2.981h.24v-8.742c-.48-.04-1.141-.14-1.501-.24-.08-.44-.12-1.42-.02-1.84h5.101c.04.159.061.439.061.739 0 .421-.04.86-.101 1.101-.3.101-.979.2-1.34.22v12.283h-3.101l-4.901-8.702c-.44-.8-.88-2.021-1.021-2.881h-.239v9.303c.479.04 1.1.16 1.5.279.12.44.16 1.421.08 1.841h-5.602c.04-.5.2-1.4.36-1.801.3-.119.92-.26 1.26-.319v-9.982c-.42-.04-1-.14-1.32-.24-.079-.44-.119-1.42-.02-1.84h5.161l4.382 7.84zM368.881 286.508c.04-.48.28-1.36.48-1.82.34-.12.899-.26 1.24-.32-.301-.36-.541-.86-.721-1.32l-.22-.56h-5.16l-.24.66c-.12.34-.36.96-.601 1.3.421.04 1.021.141 1.381.24.18.44.32 1.32.32 1.82h-5.642c.08-.62.28-1.3.48-1.801.239-.119.66-.239.96-.3l5.221-12.322h2.301l5.001 12.263c.32.06.78.18 1.08.3.16.54.28 1.3.32 1.86h-6.2zm-1.86-11.503c-.061.801-.54 2.221-.78 2.861l-1.021 2.761h3.761l-1.06-2.801c-.221-.601-.62-2.001-.66-2.821h-.24zM388.661 285.907c-1.181.4-3.821 1.001-5.701 1.001-4.201 0-6.722-2.901-6.722-7.142 0-4.701 3.121-7.842 7.941-7.842 1.721 0 3.221.44 4.581 1.24 0 1-.18 2.74-.399 3.641-.74 0-2.021-.3-2.44-.54v-2.04c-.521-.261-1.261-.4-1.86-.4-2.441 0-4.521 1.88-4.521 5.761 0 3.642 1.74 5.262 4.401 5.262.5 0 1.22-.061 1.76-.12v-3.421c-.64 0-1.9-.08-2.561-.22a9.051 9.051 0 0 1-.22-1.801h7.401c0 .48-.1 1.301-.28 1.801a10.4 10.4 0 0 1-1.38.2v4.62zM391.859 286.508c.04-.5.221-1.4.4-1.801.3-.119 1.021-.26 1.38-.319v-9.982c-.42-.04-1-.14-1.32-.24-.079-.58-.119-1.2-.02-1.84h10.862v3.62c-.68 0-1.641-.1-2.261-.3-.1-.36-.2-1.021-.24-1.44h-3.94v4.141h3.101c.021-.22.101-.62.18-.88.561-.18 1.461-.3 2.181-.3v4.101c-.66.061-1.62.021-2.2-.16-.08-.24-.16-.68-.18-.92h-3.081v4.401h4.001c.04-.521.14-1.161.26-1.621.561-.18 1.7-.3 2.381-.3v3.841h-11.504zM410.459 278.146c-.319-.86-.659-2.441-.76-3.481h-.24v9.742c.4.04.961.16 1.301.28.1.44.14 1.4.06 1.82h-5.121c.04-.5.2-1.4.34-1.801.28-.119.841-.26 1.161-.319v-9.982c-.381-.04-.921-.14-1.221-.24-.08-.44-.12-1.42-.02-1.84h5.501l2.761 7.381c.34.881.66 2.521.72 3.541h.24c.04-1 .399-2.7.72-3.521l2.821-7.401h5.301c.08.399.06 1.42-.04 1.84-.34.101-1.061.2-1.46.22v10.083c.46.04 1.12.14 1.58.239.1.261.14.78.14 1.221 0 .24-.02.44-.04.58h-6.001c.04-.5.2-1.4.36-1.801.3-.119.86-.26 1.22-.319v-9.803h-.24c-.159 1.16-.479 2.661-.859 3.721l-2.981 8.422h-2.14l-3.103-8.582zM425.978 286.508c.04-.5.221-1.4.4-1.801.3-.119 1.021-.26 1.38-.319v-9.982c-.42-.04-1-.14-1.32-.24-.079-.58-.119-1.2-.02-1.84h10.862v3.62c-.68 0-1.641-.1-2.261-.3-.1-.36-.2-1.021-.24-1.44h-3.94v4.141h3.101c.021-.22.101-.62.18-.88.561-.18 1.461-.3 2.181-.3v4.101c-.66.061-1.62.021-2.2-.16-.08-.24-.16-.68-.18-.92h-3.081v4.401h4.001c.04-.521.14-1.161.26-1.621.561-.18 1.7-.3 2.381-.3v3.841h-11.504zM449.64 280.166c.48.881.84 1.961 1.021 2.981h.24v-8.742c-.48-.04-1.141-.14-1.501-.24-.08-.44-.12-1.42-.02-1.84h5.101c.04.159.061.439.061.739 0 .421-.04.86-.101 1.101-.3.101-.979.2-1.34.22v12.283H450l-4.901-8.702c-.44-.8-.88-2.021-1.021-2.881h-.239v9.303c.479.04 1.1.16 1.5.279.12.44.16 1.421.08 1.841h-5.602c.04-.5.2-1.4.36-1.801.3-.119.92-.26 1.26-.319v-9.982c-.42-.04-1-.14-1.32-.24-.079-.44-.119-1.42-.02-1.84h5.161l4.382 7.84zM463.94 284.388c.62.04 1.461.16 1.98.279.141.44.181 1.421.101 1.841h-7.302c.04-.5.3-1.38.479-1.78.381-.12 1.201-.28 1.661-.34v-10.183h-2.221c-.04.42-.16 1.221-.26 1.62-.721.24-1.641.28-2.321.28v-3.78h12.703v3.841c-.76 0-1.66-.08-2.341-.28-.12-.44-.239-1.2-.279-1.681h-2.201v10.183z"/></g></svg>