<svg xmlns="http://www.w3.org/2000/svg" width="500" height="314" viewBox="0 0 500 314"><path fill="#E6F0F4" d="M241 22.345V31h7v-8.655s-.916-1.46-3.327-1.46c-2.41 0-3.673 1.46-3.673 1.46zM264.776 155.77c0 5.972-3.426 7.854-9.396 7.854s-8.38-1.692-8.38-7.662V91h-5v64.962c0 8.29 5.008 11.955 13.297 11.955s14.025-3.778 14.025-12.067c0 0-.172-2.073-2.208-2.073s-2.338 1.993-2.338 1.993z"/><path fill="#E6F0F4" d="M254.475 168.463c-8.616 0-12.63-3.973-12.63-12.5v-10.595h5.163v10.595c0 5.653 1.457 7.117 7.085 7.117 6.82 0 10.14-2.39 10.14-7.31.042-.895.655-2.54 2.677-2.54.745 0 1.35.233 1.8.69.757.768.747 1.89.747 1.938 0 7.89-5.602 12.605-14.982 12.605z"/><path fill="#E6F0F4" d="M246.462 145.913v10.05c0 5.968 1.66 7.66 7.63 7.66 5.973 0 10.685-1.882 10.685-7.853 0 0 .097-1.993 2.133-1.993 2.035 0 2 2.073 2 2.073 0 8.29-6.145 12.067-14.435 12.067-8.29 0-12.083-3.666-12.083-11.955v-10.05h4.07m1.09-1.09h-6.25v11.14c0 4.48 1.065 7.706 3.258 9.863 2.176 2.142 5.42 3.183 9.915 3.183 9.723 0 15.526-4.92 15.526-13.158.003-.125-.003-1.398-.9-2.312-.383-.388-1.073-.852-2.19-.852-2.257 0-3.163 1.812-3.222 3.03l-.002.027v.026c0 1.672 0 6.763-9.593 6.763-5.38 0-6.54-1.167-6.54-6.57v-11.14z"/><g fill="#E6F0F4"><path d="M156.916 200.576c3.485 0 7.332.48 10.518 3.306 3.427 3.006 3.907 6.973 3.907 9.737 0 5.048-1.923 7.873-3.425 9.436-3.186 3.245-7.394 3.546-10.218 3.546h-5.65v14.064h-9.256v-40.09h14.126zm-4.87 18.452h3.307c1.263 0 3.486-.06 4.99-1.503.84-.84 1.502-2.224 1.502-3.967 0-1.683-.602-3.065-1.503-3.906-1.383-1.322-3.366-1.503-5.17-1.503h-3.125v10.878zM177.652 213.86h8.655v4.206c.78-1.502 1.983-2.885 3.366-3.727 1.442-.902 2.945-1.143 4.628-1.143 1.083 0 1.864.12 2.826.42l-.48 8.115c-1.143-.602-2.405-.962-3.907-.962-1.864 0-3.247.66-4.33 1.803-1.922 2.044-2.103 4.93-2.103 7.213v10.88h-8.655v-26.807zM227.48 237.24c-2.405 2.404-6.492 4.327-11.722 4.327-5.23 0-9.316-1.923-11.72-4.327-2.705-2.705-4.027-6.552-4.027-9.978s1.323-7.272 4.027-9.978c2.404-2.404 6.492-4.327 11.72-4.327 5.23 0 9.317 1.923 11.722 4.327 2.703 2.705 4.025 6.552 4.025 9.978s-1.32 7.273-4.026 9.978zm-16.59-15.026c-1.262 1.263-1.982 2.885-1.982 5.05 0 2.463.962 4.026 1.983 5.048 1.083 1.082 2.646 1.923 4.93 1.923 1.923 0 3.546-.66 4.808-1.923 1.263-1.263 1.983-2.885 1.983-5.05s-.72-3.785-1.982-5.048c-1.262-1.262-2.885-1.923-4.868-1.923s-3.608.662-4.87 1.924zM247.796 220.832v19.834h-8.655v-19.834h-3.124v-6.973h3.125v-5.29c0-3.005.302-6.432 3.007-9.316 1.743-1.863 4.207-3.065 7.513-3.065 1.923 0 3.486.36 4.93.9v7.573c-.963-.6-2.226-1.02-3.307-1.02-1.322 0-2.164.6-2.524 1.08-.963 1.263-.963 3.367-.963 4.63v4.507h6.852v6.973h-6.854zM286.984 228.766h-20.016c0 1.442.54 3.365 1.623 4.567 1.323 1.442 3.127 1.684 4.45 1.684 1.26 0 2.583-.24 3.484-.782.12-.06 1.143-.72 1.863-2.224l8.175.843c-1.202 3.786-3.606 5.77-5.17 6.73-2.584 1.563-5.47 1.984-8.474 1.984-4.027 0-7.573-.72-10.7-3.847-2.343-2.344-4.025-5.89-4.025-10.338 0-3.847 1.382-7.813 4.087-10.578 3.245-3.246 7.272-3.847 10.277-3.847 3.006 0 7.333.54 10.64 4.027 3.185 3.365 3.786 7.572 3.786 10.88v.902zm-7.994-5.17c-.06-.24-.48-1.923-1.743-3.125-.962-.9-2.344-1.5-4.087-1.5-2.224 0-3.547.9-4.388 1.74-.66.723-1.263 1.685-1.503 2.887h11.72zM293.897 213.86h8.654v4.206c.782-1.502 1.984-2.885 3.367-3.727 1.442-.902 2.945-1.143 4.628-1.143 1.082 0 1.863.12 2.825.42l-.48 8.115c-1.143-.602-2.404-.962-3.907-.962-1.863 0-3.246.66-4.327 1.803-1.924 2.044-2.104 4.93-2.104 7.213v10.88h-8.654v-26.807zM343.725 237.24c-2.404 2.404-6.492 4.327-11.72 4.327-5.23 0-9.317-1.923-11.722-4.327-2.704-2.705-4.026-6.552-4.026-9.978s1.322-7.272 4.026-9.978c2.404-2.404 6.49-4.327 11.72-4.327s9.317 1.923 11.722 4.327c2.704 2.705 4.026 6.552 4.026 9.978s-1.32 7.273-4.025 9.978zm-16.59-15.026c-1.262 1.263-1.982 2.885-1.982 5.05 0 2.463.96 4.026 1.983 5.048 1.08 1.082 2.645 1.923 4.928 1.923 1.924 0 3.547-.66 4.81-1.923 1.262-1.263 1.982-2.885 1.982-5.05s-.72-3.785-1.983-5.048c-1.262-1.262-2.885-1.923-4.868-1.923s-3.608.662-4.87 1.924z"/></g><path fill="#FF7915" d="M244.467 24.755c.25.168.493.343.738.516-.477-.34-.738-.515-.738-.515zM244.467 24.755s-.26.176-.735.523c.245-.174.487-.352.735-.523zM286.082 96.113c-.104-1.828-.308-3.65-.53-5.467-.258-1.815-.534-3.628-.908-5.428-.35-1.803-.772-3.596-1.248-5.377-1.895-7.126-4.767-14.05-8.438-20.62-1.842-3.285-3.873-6.488-6.095-9.587-2.21-3.105-4.593-6.117-7.144-9.014-2.55-2.9-5.262-5.69-8.128-8.353-1.434-1.33-2.906-2.63-4.423-3.887-1.52-1.256-3.07-2.484-4.703-3.625-1.614 1.15-3.144 2.385-4.642 3.65-1.495 1.265-2.947 2.57-4.358 3.908-2.825 2.675-5.49 5.48-7.995 8.388-2.504 2.91-4.848 5.926-7.01 9.04-2.176 3.104-4.167 6.31-5.965 9.595-3.588 6.573-6.393 13.482-8.236 20.59-.93 3.55-1.61 7.15-2.094 10.767-.217 1.81-.415 3.625-.516 5.445-.12 1.734-.156 3.47-.172 5.208 2.733-1.375 17.096-7.977 40.99-7.977 23.956 0 38.98 6.637 41.792 7.988-.017-1.75-.054-3.498-.178-5.243z"/><path fill="#FF8A33" d="M244.675 24.755s-89.904-1.92-98.9 72.882c0 0 7.47-6.64 28.608-6.64 15.777 0 25.882 8.15 28.13 10.157.02-1.69.064-3.38.186-5.066.106-1.835.312-3.665.537-5.49.258-1.824.532-3.647.912-5.454.358-1.81.792-3.607 1.273-5.394 1.926-7.15 4.816-14.084 8.486-20.668 3.667-6.587 8.143-12.814 13.27-18.58 2.56-2.884 5.28-5.66 8.153-8.3 1.436-1.322 2.912-2.61 4.43-3.857 1.52-1.245 3.07-2.462 4.704-3.59l.103.072.105-.072z"/><path fill="#FF8A33" d="M244.467 24.755c-1.614 1.15-3.144 2.385-4.642 3.65-1.495 1.265-2.947 2.57-4.358 3.908-.396.375-.782.758-1.17 1.14 5.43-5.202 9.578-8.144 10.272-8.625l-.103-.073z"/><g><path fill="#FF8A33" d="M244.467 24.755s.26.173.738.516c1.384.973 2.718 2 4.026 3.05 1.54 1.24 3.037 2.52 4.494 3.833 2.917 2.627 5.682 5.388 8.286 8.262 2.605 2.874 5.056 5.86 7.317 8.956 2.262 3.097 4.333 6.3 6.217 9.59 3.755 6.583 6.715 13.53 8.692 20.703.497 1.792.94 3.596 1.31 5.413.387 1.814.67 3.644.936 5.474.23 1.834.44 3.67.552 5.515.126 1.684.17 3.37.192 5.057 2.16-2.06 11.617-10.125 27.247-10.125 21.055 0 28.48 6.64 28.48 6.64-8.96-74.803-98.486-72.882-98.486-72.882z"/></g><g><path fill="#FFD8BD" d="M286.262 101.597c-.015-1.83-.05-3.658-.18-5.484-.104-1.828-.308-3.65-.53-5.467-.258-1.815-.534-3.628-.908-5.428-.35-1.803-.772-3.596-1.248-5.377-1.895-7.126-4.767-14.05-8.438-20.62-1.842-3.285-3.873-6.488-6.095-9.587-2.21-3.105-4.593-6.117-7.144-9.014-2.55-2.9-5.262-5.69-8.128-8.353-1.434-1.33-2.906-2.63-4.423-3.887-1.52-1.256-3.07-2.484-4.703-3.625-1.614 1.15-3.144 2.385-4.642 3.65-1.495 1.265-2.947 2.57-4.358 3.908-2.825 2.675-5.49 5.48-7.995 8.388-2.504 2.91-4.848 5.926-7.01 9.04-2.176 3.104-4.167 6.31-5.965 9.595-3.588 6.573-6.393 13.482-8.236 20.59-.93 3.55-1.61 7.15-2.094 10.767-.217 1.81-.415 3.625-.516 5.445-.126 1.818-.16 3.64-.174 5.46-.002.254-.227.363-.227.363l-.016.008c-.23.12-.523.053-.66-.148-.046-.07-.068-.146-.067-.22.02-1.838.06-3.676.193-5.51.107-1.835.313-3.665.538-5.49.258-1.824.532-3.647.912-5.454.36-1.81.793-3.607 1.274-5.394 1.926-7.15 4.816-14.084 8.486-20.668 3.668-6.587 8.144-12.814 13.27-18.58 2.562-2.884 5.28-5.66 8.154-8.3 1.436-1.322 2.912-2.61 4.43-3.857 1.52-1.245 3.07-2.462 4.704-3.59 1.652 1.12 3.224 2.328 4.765 3.564 1.54 1.24 3.036 2.52 4.493 3.834 2.917 2.627 5.682 5.388 8.286 8.262 2.605 2.874 5.056 5.86 7.317 8.956 2.26 3.096 4.332 6.3 6.216 9.59 3.755 6.582 6.715 13.53 8.692 20.702.497 1.792.94 3.596 1.31 5.413.387 1.814.67 3.644.936 5.474.23 1.835.44 3.672.552 5.516.138 1.842.18 3.688.2 5.533 0 .235-.213.427-.48.43-.087 0-.17-.02-.24-.055l-.017-.008c-.002-.002-.235-.128-.238-.37z"/></g><g fill="#787D7F"><path d="M22.804 271.976c-.46-.22-1.002-.32-1.463-.32-1.34 0-2.143.642-2.143 1.482 0 3.046 6.812 2.104 6.812 7.053 0 3.547-2.646 4.608-5.77 4.608-1.424 0-3.187-.22-4.59-.74 0-1.103.14-2.906.34-3.968.643 0 1.864.14 2.506.36v2.044c.68.24 1.422.42 2.164.42 1.502 0 2.424-.68 2.424-1.883 0-3.164-6.872-1.902-6.872-7.31 0-2.425 1.943-3.928 5.15-3.928 1.26 0 2.983.28 4.206.7 0 .963-.18 2.605-.42 3.587-.662 0-1.744-.22-2.345-.5v-1.604zM41.777 277.104c0 4.87-2.645 7.693-6.73 7.693-4.368 0-6.793-2.664-6.793-7.693 0-4.508 2.925-7.312 6.792-7.312 4.047 0 6.73 2.604 6.73 7.312zm-6.73 5.71c2.323 0 3.465-2.163 3.465-5.71 0-3.125-1.382-5.35-3.466-5.35-2.284 0-3.506 2.064-3.506 5.35 0 3.487 1.302 5.71 3.506 5.71zM48.41 282.273c.62.04 1.482.16 2.004.28.14.44.18 1.423.1 1.844h-6.972c.04-.5.22-1.402.4-1.803.3-.12 1.022-.26 1.383-.32v-9.998c-.42-.04-1.002-.14-1.322-.24-.08-.58-.12-1.202-.02-1.844H54.44V274c-.68 0-1.702-.14-2.304-.34-.1-.362-.24-1.144-.28-1.584H48.41v4.508h2.765c.02-.24.1-.682.18-.962.562-.18 1.464-.32 2.185-.32v4.327c-.66.06-1.623.02-2.204-.18-.08-.262-.16-.742-.18-1.023H48.41v3.846zM64.02 282.273c.62.04 1.462.16 1.982.28.14.44.18 1.423.1 1.844H58.79c.04-.5.3-1.383.48-1.783.382-.12 1.203-.28 1.664-.34v-10.198H58.71c-.04.42-.16 1.222-.26 1.623-.723.24-1.645.28-2.325.28v-3.788h12.722v3.847c-.76 0-1.663-.08-2.344-.28-.12-.44-.24-1.203-.28-1.684H64.02v10.197zM76.822 281.854c.02-1.082.24-2.785.5-3.807l2.125-8.034h2.805l2.043 8.054c.22.882.42 2.464.44 3.626h.24c.02-1.182.302-2.765.562-3.646l1.103-3.687c.22-.722.56-1.563.9-2.104-.34-.02-.84-.1-1.18-.2-.142-.44-.262-1.363-.262-1.864h4.93c0 .54-.12 1.463-.282 1.924-.3.08-.7.14-1.02.16l-4.008 12.342h-2.604l-2.044-8.395c-.22-.902-.36-2.265-.4-3.346h-.24c-.04 1.062-.2 2.464-.44 3.365l-2.204 8.395H74.9l-3.686-12.38c-.3-.04-.74-.142-1.002-.242-.16-.48-.28-1.242-.32-1.823h5.89c0 .5-.16 1.403-.34 1.924-.24.08-1.022.16-1.323.16.32.5.66 1.303.88 2.084l1.003 3.687c.28 1 .56 2.704.58 3.807h.24zM99.464 284.397c.04-.48.28-1.362.48-1.823.34-.12.9-.26 1.242-.32-.3-.36-.54-.86-.72-1.322l-.222-.562h-5.17l-.24.66c-.12.342-.36.963-.6 1.304.42.04 1.02.14 1.382.24.18.44.32 1.322.32 1.823h-5.65c.08-.62.28-1.303.48-1.803.24-.12.662-.24.963-.3l5.228-12.343h2.305l5.01 12.282c.32.06.78.18 1.08.3.16.542.28 1.304.32 1.864h-6.21zm-1.863-11.52c-.06.802-.54 2.225-.78 2.865l-1.022 2.765h3.767l-1.062-2.805c-.22-.6-.62-2.003-.66-2.824H97.6zM108.74 272.356c-.4 0-1.02-.06-1.34-.14-.08-.46-.102-1.403-.04-1.944 1.58-.18 4.065-.28 5.89-.28 3.345 0 5.79 1.263 5.79 4.228 0 1.903-1.283 3.226-2.886 3.827 1.142 2.063 2.545 3.906 3.126 4.267l1.102-.12c0 .62-.18 1.604-.42 2.084-.582.18-2.005.4-2.666.44-.74-.52-2.765-3.626-3.946-6.19-.602 0-1.143-.06-1.522-.14v3.886c.46.04 1.102.16 1.482.28.12.44.16 1.423.08 1.844h-6.432c.04-.5.22-1.402.4-1.803.3-.12 1.022-.26 1.383-.32v-9.92zm3.087 4.207c.42.08 1.122.12 1.662.12 1.342 0 2.443-.72 2.443-2.363 0-1.503-1.262-2.404-3.005-2.404-.38 0-.802.02-1.102.06v4.587zM121.726 284.397c.04-.5.22-1.402.4-1.803.3-.12 1.022-.26 1.383-.32v-9.998c-.422-.04-1.003-.14-1.323-.24-.08-.58-.12-1.202-.02-1.844h10.878v3.627c-.68 0-1.643-.102-2.264-.302-.1-.36-.2-1.02-.24-1.442h-3.946v4.147h3.105c.02-.22.1-.62.18-.882.56-.18 1.462-.3 2.184-.3v4.107c-.66.06-1.623.02-2.204-.16-.08-.24-.16-.682-.18-.922h-3.086v4.408h4.007c.04-.52.142-1.162.262-1.623.56-.18 1.703-.3 2.384-.3v3.846h-11.52zM139.537 282.694c0 1.263-.76 1.964-1.843 1.964-1.242 0-1.903-.682-1.903-1.964 0-1.102.782-1.823 1.904-1.823 1.082 0 1.843.662 1.843 1.824zM143.385 272.477c-.4-.04-.98-.12-1.322-.18-.08-.602-.14-1.223-.02-1.884 1.48-.18 4.407-.36 5.79-.36 4.647 0 7.812 2.164 7.812 6.972 0 5.23-3.565 7.514-7.032 7.514-1.883 0-5.05-.062-6.972-.182.04-.5.222-1.402.4-1.803.302-.12.983-.24 1.344-.3v-9.778zm3.085 10.017c.44.04 1.122.06 1.562.06 2.645 0 4.448-1.482 4.448-5.208 0-3.687-1.903-5.33-4.77-5.33-.34 0-.9.04-1.24.08v10.398zM157.01 284.397c.04-.5.22-1.402.4-1.803.3-.12 1.022-.26 1.383-.32v-9.998c-.42-.04-1.002-.14-1.322-.24-.08-.58-.12-1.202-.02-1.844h10.88v3.627c-.682 0-1.644-.102-2.265-.302-.1-.36-.2-1.02-.24-1.442h-3.947v4.147h3.105c.02-.22.1-.62.18-.882.562-.18 1.463-.3 2.185-.3v4.107c-.66.06-1.623.02-2.204-.16-.08-.24-.16-.682-.18-.922h-3.086v4.408h4.007c.04-.52.14-1.162.26-1.623.562-.18 1.704-.3 2.385-.3v3.846h-11.52zM177.968 271.976c-.46-.22-1.002-.32-1.463-.32-1.342 0-2.144.642-2.144 1.482 0 3.046 6.813 2.104 6.813 7.053 0 3.547-2.645 4.608-5.77 4.608-1.423 0-3.186-.22-4.588-.74 0-1.103.14-2.906.34-3.968.642 0 1.863.14 2.505.36v2.044c.68.24 1.422.42 2.164.42 1.502 0 2.424-.68 2.424-1.883 0-3.164-6.872-1.902-6.872-7.31 0-2.425 1.943-3.928 5.15-3.928 1.26 0 2.983.28 4.206.7 0 .963-.18 2.605-.42 3.587-.662 0-1.744-.22-2.345-.5v-1.604zM182.856 284.397c.04-.5.22-1.402.4-1.803.3-.12 1.022-.26 1.383-.32v-9.998c-.422-.04-1.002-.14-1.323-.24-.08-.58-.14-1.202-.02-1.844h5.93c.08.4.06 1.423-.04 1.844-.34.1-1.062.2-1.462.22v10.018c.5.04 1.182.16 1.603.28.08.28.12.802.12 1.243 0 .24-.02.46-.04.6h-6.552zM203.714 283.797c-1.183.4-3.827 1-5.71 1-4.207 0-6.73-2.903-6.73-7.15 0-4.71 3.124-7.855 7.952-7.855 1.724 0 3.226.44 4.588 1.242 0 1.002-.18 2.745-.4 3.646-.74 0-2.023-.3-2.444-.54v-2.045c-.52-.26-1.262-.4-1.863-.4-2.444 0-4.527 1.884-4.527 5.77 0 3.647 1.743 5.27 4.407 5.27.5 0 1.223-.06 1.764-.12v-3.426c-.64 0-1.902-.08-2.563-.222-.12-.48-.22-1.302-.22-1.803h7.412c0 .48-.102 1.302-.282 1.803-.32.08-1.04.18-1.382.2v4.63zM216.718 278.047c.48.88.842 1.963 1.02 2.984h.242v-8.754c-.48-.04-1.143-.14-1.503-.24-.08-.44-.12-1.423-.02-1.844h5.108c.04.16.06.44.06.74 0 .422-.04.863-.1 1.104-.3.1-.98.2-1.343.22v12.302h-3.105l-4.908-8.715c-.44-.802-.883-2.023-1.022-2.885h-.24v9.315c.48.04 1.102.16 1.502.28.12.44.16 1.423.08 1.844h-5.61c.04-.5.2-1.402.36-1.803.302-.12.923-.26 1.264-.32v-9.998c-.42-.04-1.002-.14-1.322-.24-.08-.44-.12-1.423-.02-1.844h5.168l4.388 7.855zM227.218 282.694c0 1.263-.76 1.964-1.843 1.964-1.242 0-1.903-.682-1.903-1.964 0-1.102.78-1.823 1.903-1.823 1.082 0 1.843.662 1.843 1.824zM231.064 272.337c-.4 0-1-.06-1.342-.12-.08-.46-.1-1.403-.04-1.944 1.603-.18 4.127-.28 5.97-.28 3.346 0 5.77 1.383 5.77 4.428 0 3.207-2.864 4.61-5.63 4.61-.64 0-1.24-.062-1.642-.142v3.386c.64.04 1.522.16 2.063.28.14.44.18 1.423.1 1.844h-7.032c.04-.5.222-1.402.402-1.803.3-.12 1.02-.26 1.382-.32v-9.938zm3.086 4.647c.46.08 1.142.12 1.703.12 1.422 0 2.464-.78 2.464-2.624 0-1.603-1.223-2.564-3.045-2.564-.38 0-.822.02-1.122.06v5.008zM244.49 272.356c-.4 0-1.022-.06-1.343-.14-.08-.46-.1-1.403-.04-1.944 1.582-.18 4.066-.28 5.89-.28 3.346 0 5.79 1.263 5.79 4.228 0 1.903-1.282 3.226-2.885 3.827 1.142 2.063 2.544 3.906 3.125 4.267l1.103-.12c0 .62-.18 1.604-.42 2.084-.582.18-2.005.4-2.666.44-.74-.52-2.765-3.626-3.946-6.19-.602 0-1.143-.06-1.522-.14v3.886c.46.04 1.102.16 1.482.28.12.44.16 1.423.08 1.844h-6.432c.04-.5.22-1.402.4-1.803.3-.12 1.022-.26 1.383-.32v-9.92zm3.085 4.207c.42.08 1.122.12 1.662.12 1.343 0 2.444-.72 2.444-2.363 0-1.503-1.26-2.404-3.004-2.404-.38 0-.802.02-1.102.06v4.587zM271.157 277.104c0 4.87-2.645 7.693-6.73 7.693-4.37 0-6.793-2.664-6.793-7.693 0-4.508 2.925-7.312 6.792-7.312 4.047 0 6.73 2.604 6.73 7.312zm-6.73 5.71c2.322 0 3.465-2.163 3.465-5.71 0-3.125-1.383-5.35-3.466-5.35-2.284 0-3.507 2.064-3.507 5.35 0 3.487 1.302 5.71 3.506 5.71zM278.19 279.55c0 3.966-1.783 6.892-5.31 8.514-.36-.36-.8-1.122-.94-1.622 2.323-1.343 3.165-3.606 3.165-6.37v-7.795c-.54-.04-1.282-.14-1.703-.24-.08-.58-.12-1.202-.02-1.844h6.31c.04.16.06.44.06.74 0 .422-.04.863-.1 1.104-.34.1-1.06.2-1.462.22v7.292zM281.037 284.397c.04-.5.22-1.402.4-1.803.3-.12 1.02-.26 1.383-.32v-9.998c-.42-.04-1.002-.14-1.322-.24-.08-.58-.12-1.202-.02-1.844h10.878v3.627c-.682 0-1.643-.102-2.264-.302-.1-.36-.2-1.02-.24-1.442h-3.947v4.147h3.105c.02-.22.1-.62.18-.882.562-.18 1.463-.3 2.185-.3v4.107c-.66.06-1.623.02-2.204-.16-.08-.24-.16-.682-.18-.922h-3.085v4.408h4.007c.04-.52.14-1.162.26-1.623.562-.18 1.704-.3 2.385-.3v3.846h-11.52zM303.597 272.076c-.44-.2-.9-.3-1.442-.3-2.345 0-4.088 1.763-4.088 5.368 0 3.627 1.743 5.31 4.168 5.31 1.04 0 2.765-.28 4.087-.762.06.562-.16 1.523-.48 2.044-1.162.6-2.745 1.062-4.308 1.062-4.067 0-6.752-3.065-6.752-7.372 0-4.79 3.386-7.634 7.553-7.634 1.522 0 2.985.38 4.107.94 0 1.203-.16 2.866-.38 3.888-.762 0-1.884-.26-2.465-.58v-1.964zM316.18 282.273c.622.04 1.463.16 1.984.28.14.44.18 1.423.1 1.844h-7.312c.04-.5.3-1.383.48-1.783.38-.12 1.202-.28 1.663-.34v-10.198h-2.224c-.04.42-.16 1.222-.26 1.623-.72.24-1.643.28-2.323.28v-3.788h12.722v3.847c-.763 0-1.664-.08-2.345-.28-.12-.44-.24-1.203-.28-1.684h-2.204v10.197zM331.367 276.022c-.32-.86-.66-2.443-.76-3.485h-.24v9.757c.4.04.96.16 1.3.28.102.44.142 1.402.062 1.823h-5.13c.04-.5.2-1.402.34-1.803.28-.12.842-.26 1.162-.32v-9.998c-.38-.04-.92-.14-1.222-.24-.08-.44-.12-1.423-.02-1.844h5.51l2.764 7.394c.34.88.66 2.524.722 3.546h.24c.04-1.002.4-2.705.722-3.526l2.824-7.413h5.31c.08.4.06 1.423-.04 1.844-.34.1-1.062.2-1.463.22v10.098c.46.04 1.12.14 1.582.24.1.26.14.782.14 1.223 0 .24-.02.44-.04.58h-6.01c.04-.5.2-1.4.36-1.802.3-.12.862-.26 1.223-.32v-9.817h-.24c-.16 1.16-.48 2.663-.862 3.726l-2.984 8.435h-2.146l-3.107-8.598zM355.632 284.397c.04-.48.28-1.362.48-1.823.34-.12.902-.26 1.242-.32-.3-.36-.54-.86-.72-1.322l-.222-.562h-5.17l-.24.66c-.12.342-.36.963-.6 1.304.42.04 1.02.14 1.382.24.18.44.32 1.322.32 1.823h-5.65c.08-.62.28-1.303.48-1.803.242-.12.662-.24.963-.3l5.23-12.343h2.303l5.01 12.282c.32.06.78.18 1.08.3.16.542.28 1.304.32 1.864h-6.208zm-1.863-11.52c-.06.802-.542 2.225-.782 2.865l-1.02 2.765h3.766l-1.062-2.805c-.22-.6-.62-2.003-.66-2.824h-.243zM373.124 278.047c.48.88.842 1.963 1.02 2.984h.24v-8.754c-.48-.04-1.14-.14-1.5-.24-.08-.44-.12-1.423-.022-1.844h5.11c.04.16.06.44.06.74 0 .422-.04.863-.1 1.104-.302.1-.983.2-1.344.22v12.302h-3.105l-4.908-8.715c-.44-.802-.882-2.023-1.02-2.885h-.242v9.315c.48.04 1.103.16 1.503.28.12.44.16 1.423.08 1.844h-5.61c.04-.5.2-1.402.36-1.803.302-.12.923-.26 1.264-.32v-9.998c-.42-.04-1.002-.14-1.322-.24-.08-.44-.12-1.423-.02-1.844h5.168l4.388 7.855zM387.892 284.397c.04-.48.28-1.362.48-1.823.34-.12.902-.26 1.242-.32-.3-.36-.54-.86-.72-1.322l-.222-.562h-5.17l-.24.66c-.12.342-.36.963-.6 1.304.42.04 1.02.14 1.382.24.18.44.32 1.322.32 1.823h-5.65c.08-.62.28-1.303.48-1.803.242-.12.662-.24.963-.3l5.23-12.343h2.303l5.01 12.282c.32.06.78.18 1.08.3.16.542.28 1.304.32 1.864h-6.208zm-1.864-11.52c-.06.802-.54 2.225-.78 2.865l-1.022 2.765h3.767l-1.062-2.805c-.22-.6-.62-2.003-.66-2.824h-.242zM407.507 283.797c-1.182.4-3.826 1-5.71 1-4.207 0-6.73-2.903-6.73-7.15 0-4.71 3.124-7.855 7.953-7.855 1.723 0 3.226.44 4.588 1.242 0 1.002-.18 2.745-.4 3.646-.742 0-2.024-.3-2.445-.54v-2.045c-.52-.26-1.262-.4-1.863-.4-2.443 0-4.527 1.884-4.527 5.77 0 3.647 1.743 5.27 4.407 5.27.5 0 1.223-.06 1.764-.12v-3.426c-.642 0-1.903-.08-2.564-.222-.12-.48-.22-1.302-.22-1.803h7.412c0 .48-.1 1.302-.28 1.803-.32.08-1.042.18-1.383.2v4.63zM415.443 276.022c-.32-.86-.662-2.443-.762-3.485h-.24v9.757c.4.04.962.16 1.303.28.1.44.14 1.402.06 1.823h-5.128c.04-.5.2-1.402.34-1.803.28-.12.842-.26 1.162-.32v-9.998c-.38-.04-.92-.14-1.222-.24-.08-.44-.12-1.423-.02-1.844h5.51l2.764 7.394c.34.88.66 2.524.72 3.546h.24c.04-1.002.402-2.705.723-3.526l2.824-7.413h5.31c.08.4.06 1.423-.04 1.844-.34.1-1.062.2-1.463.22v10.098c.46.04 1.122.14 1.583.24.1.26.14.782.14 1.223 0 .24-.02.44-.04.58h-6.01c.04-.5.2-1.4.36-1.802.3-.12.86-.26 1.223-.32v-9.817h-.24c-.16 1.16-.48 2.663-.862 3.726l-2.984 8.435h-2.145l-3.107-8.598zM430.79 284.397c.04-.5.22-1.402.4-1.803.302-.12 1.022-.26 1.384-.32v-9.998c-.42-.04-1.002-.14-1.322-.24-.08-.58-.12-1.202-.02-1.844h10.878v3.627c-.682 0-1.643-.102-2.264-.302-.1-.36-.2-1.02-.24-1.442h-3.947v4.147h3.104c.02-.22.1-.62.18-.882.562-.18 1.463-.3 2.185-.3v4.107c-.662.06-1.624.02-2.205-.16-.08-.24-.16-.682-.18-.922h-3.086v4.408h4.006c.04-.52.14-1.162.26-1.623.562-.18 1.704-.3 2.385-.3v3.846h-11.52zM454.293 278.047c.48.88.842 1.963 1.02 2.984h.24v-8.754c-.48-.04-1.14-.14-1.5-.24-.08-.44-.12-1.423-.022-1.844h5.11c.04.16.06.44.06.74 0 .422-.04.863-.1 1.104-.3.1-.982.2-1.343.22v12.302h-3.105l-4.908-8.715c-.44-.802-.882-2.023-1.02-2.885h-.242v9.315c.48.04 1.103.16 1.503.28.12.44.16 1.423.08 1.844h-5.61c.04-.5.2-1.402.36-1.803.302-.12.923-.26 1.264-.32v-9.998c-.422-.04-1.003-.14-1.323-.24-.08-.44-.12-1.423-.02-1.844h5.168l4.388 7.855zM468.42 282.273c.62.04 1.462.16 1.983.28.14.44.18 1.423.1 1.844h-7.312c.04-.5.302-1.383.482-1.783.38-.12 1.2-.28 1.662-.34v-10.198h-2.224c-.04.42-.16 1.222-.26 1.623-.722.24-1.644.28-2.324.28v-3.788h12.722v3.847c-.762 0-1.663-.08-2.344-.28-.12-.44-.24-1.203-.28-1.684h-2.204v10.197z"/></g></svg>